<?xml version="1.0" encoding="UTF-8"?><svg id="b" xmlns="http://www.w3.org/2000/svg" width="2160.99" height="1024" xmlns:xlink="http://www.w3.org/1999/xlink" viewBox="0 0 2160.99 1024"><defs><linearGradient id="c" x1="868.69" y1="298.48" x2="868.69" y2="814.44" gradientUnits="userSpaceOnUse"><stop offset="0" stop-color="#e5ff29"/><stop offset=".73" stop-color="#405b37"/></linearGradient><linearGradient id="d" x1="1628.89" y1="619.34" x2="1628.89" y2="840.48" gradientTransform="translate(2887.98 774.4) rotate(-180)" xlink:href="#c"/><linearGradient id="e" x1="2107.29" y1="717.11" x2="2107.29" y2="938.25" gradientTransform="translate(2887.98 774.4) rotate(-180)" xlink:href="#c"/><linearGradient id="f" x1="1080.8" y1="489.79" x2="1080.8" y2="683.56" gradientTransform="translate(297.01 -283.34)" xlink:href="#c"/><linearGradient id="g" x1="1076.07" y1="1187.97" x2="1076.07" y2="1468.56" gradientTransform="translate(297.01 -283.34)" xlink:href="#c"/><linearGradient id="h" x1="-27.63" y1="1068.81" x2="-27.63" y2="1433.47" gradientTransform="translate(311.58 1899.64) rotate(-180)" xlink:href="#c"/><linearGradient id="i" x1="-1480.77" y1="1020.21" x2="-1480.77" y2="1384.87" gradientTransform="translate(311.58 1899.64) rotate(-180)" xlink:href="#c"/><linearGradient id="j" x1="222.08" y1="382.66" x2="222.08" y2="576.43" gradientTransform="translate(297.01 -283.34)" xlink:href="#c"/></defs><g style="opacity:.35;"><path d="M1305.09,563.73c-6.67-29.34-17.27-59.76-31.82-91.28-13.74-28.42-32.41-60.54-56.01-96.37-10.12-15.38-21.16-31.44-33.09-48.19-1.96-2.6-4.26-5.63-6.91-9.09-19.09-24.8-56.18-71.78-111.28-140.92-50.31-64.85-90.31-119.71-120.01-164.56-27.52,44.85-66.43,99.22-116.74,163.11-60.03,73.1-98.94,120.56-116.74,142.38-1.19,1.45-2.28,2.78-3.27,4-38.79,53.7-67.89,103.1-87.28,148.2-15.76,30.91-26.55,61.82-32.37,92.74-3.88,19.4-5.82,38.97-5.82,58.73v44.55c4.24,92.13,39.22,171.65,104.92,238.57,20.82,19.39,42.52,37.15,65.1,53.28.42.3.85.61,1.27.91,57.34,33.94,120.98,50.91,190.93,50.91s134.19-16.97,192.38-50.91c.43-.3.85-.61,1.27-.91,22.81-16.12,44.32-33.88,64.55-53.28,4.5-4.58,8.87-9.24,13.09-14,57.55-63.88,89.43-138.74,95.65-224.57v-44.55c-.97-19.15-3.58-38.73-7.82-58.73ZM925.96,647.38v-1.82c0-3.03.79-6.06,2.36-9.09,1.21-3.03,3.03-6.18,5.46-9.46,1.21-1.21,3.64-4.24,7.27-9.09,3.27-4,5.7-7.33,7.27-10,2.06,2.67,4.61,6,7.64,10,4,4.85,6.42,8,7.27,9.46,2.42,3.39,4.24,6.42,5.46,9.09,1.58,3.03,2.49,6.06,2.73,9.09v2.73c-.61,5.82-2.85,10.85-6.73,15.09-1.21,1.21-2.61,2.24-4.18,3.09-3.64,2.18-7.7,3.27-12.18,3.27-4.24,0-8.18-1.09-11.82-3.27-1.21-.85-2.61-1.88-4.18-3.09-3.88-4.24-6-9.27-6.36-15.09v-.91ZM811.95,779.75v4.55c-1.21,20-9.09,37.4-23.64,52.19-4.61,4.61-9.46,8.55-14.55,11.82-12.73,7.88-26.85,11.82-42.37,11.82s-29.34-3.94-41.82-11.82c-5.09-3.27-10.06-7.21-14.91-11.82-14.3-14.79-22.06-32.18-23.27-52.19v-10c0-11.27,2.73-22.37,8.18-33.28,4.61-9.94,11.15-20.85,19.64-32.73,3.64-4.24,12.43-14.97,26.37-32.18,11.15-13.94,19.76-25.94,25.82-36,6.67,10.06,15.46,22.18,26.37,36.37,13.7,17.33,22.49,28.25,26.37,32.73,8.49,12.49,15.03,23.27,19.64,32.37,5.09,11.52,7.82,22.43,8.18,32.73v5.46ZM845.59,733.75c-3.03-1.82-5.76-3.76-8.18-5.82-7.88-8.49-12.12-18.18-12.73-29.09v-6c0-6.06,1.52-11.94,4.55-17.64,2.42-5.46,5.88-11.52,10.36-18.18,2.18-2.18,7.21-8.12,15.09-17.82,6.06-7.27,10.73-13.76,14-19.46,3.39,5.7,8.24,12.36,14.55,20,7.64,9.7,12.36,15.76,14.18,18.18,4.85,6.67,8.49,12.43,10.91,17.27,2.67,6.3,4.18,12.18,4.55,17.64v6c-.61,10.91-5.03,20.61-13.27,29.09-2.42,2.06-4.97,4-7.64,5.82-7.27,4.24-15.03,6.36-23.27,6.36s-16.18-2.12-23.09-6.36ZM1112.35,860.12v6.36c-2.06,29.09-13.58,54.13-34.55,75.1-6.3,6.06-13.09,11.82-20.37,17.27-18.55,10.55-38.85,15.82-60.91,15.82s-42.37-5.27-60.55-15.82c-7.27-5.46-14.06-11.21-20.37-17.27-20.97-20.97-32.06-46-33.28-75.1v-14c0-16.12,3.94-32.06,11.82-47.82,6.06-14.18,15.33-29.76,27.82-46.73,4.85-6.06,17.4-21.52,37.64-46.37,16.12-20,28.43-36.97,36.91-50.91,9.33,13.94,21.88,31.22,37.64,51.82,20,24.85,32.61,40.43,37.82,46.73,12.36,17.94,21.58,33.28,27.64,46,7.64,16.61,11.88,32.37,12.73,47.28v7.64Z" style="fill:#405b37; stroke-width:0px;"/><path d="M1062.34,478.27c-2.42-49.1-21.21-91.52-56.37-127.28-10.55-10.55-22.06-20.06-34.55-28.55-30.55-18.18-64.31-27.28-101.28-27.28s-71.46,9.09-102.37,27.28c-12.12,8.49-23.64,18-34.55,28.55-35.15,35.76-54.55,78.19-58.19,127.28v23.27c1.21,25.09,8.36,51.46,21.46,79.1,10.3,21.82,26.06,47.58,47.28,77.28,8.49,11.15,29.21,37.52,62.19,79.1,27.03,34.55,48.43,63.76,64.19,87.64,14.55-23.88,35.15-52.67,61.82-86.37,33.94-41.46,55.28-67.34,64.01-77.64,20.61-28.85,35.94-55.1,46-78.73,13.58-26.91,20.37-53.7,20.37-80.37v-13.27c0-3.64,0-6.97,0-10ZM912.87,696.11v2.73c-.61,10.91-5.03,20.61-13.27,29.09-2.42,2.06-4.97,4-7.64,5.82-7.27,4.24-15.03,6.36-23.27,6.36s-16.18-2.12-23.09-6.36c-3.03-1.82-5.76-3.76-8.18-5.82-7.88-8.49-12.12-18.18-12.73-29.09v-6c0-6.06,1.52-11.94,4.55-17.64,2.42-5.46,5.88-11.52,10.36-18.18,2.18-2.18,7.21-8.12,15.09-17.82,6.06-7.27,10.73-13.76,14-19.46,3.39,5.7,8.24,12.36,14.55,20,7.64,9.7,12.36,15.76,14.18,18.18,4.85,6.67,8.49,12.43,10.91,17.27,2.67,6.3,4.18,12.18,4.55,17.64v3.27ZM971.42,647.38v.91c-.61,5.82-2.85,10.85-6.73,15.09-1.21,1.21-2.61,2.24-4.18,3.09-3.64,2.18-7.7,3.27-12.18,3.27-4.24,0-8.18-1.09-11.82-3.27-1.21-.85-2.61-1.88-4.18-3.09-3.88-4.24-6-9.27-6.36-15.09v-2.73c0-3.03.79-6.06,2.36-9.09,1.21-3.03,3.03-6.18,5.46-9.46,1.21-1.21,3.64-4.24,7.27-9.09,3.27-4,5.7-7.33,7.27-10,2.06,2.67,4.61,6,7.64,10,4,4.85,6.42,8,7.27,9.46,2.42,3.39,4.24,6.42,5.46,9.09,1.58,3.03,2.49,6.06,2.73,9.09v1.82Z" style="fill:url(#c); stroke-width:0px;"/></g><g style="opacity:.15;"><path d="M1072.04,41.37c2.86,12.57,7.4,25.61,13.64,39.12,5.89,12.18,13.89,25.95,24,41.31,4.34,6.59,9.07,13.48,14.18,20.65.84,1.11,1.83,2.41,2.96,3.9,8.18,10.63,24.08,30.76,47.7,60.4,21.56,27.8,38.71,51.31,51.44,70.53,11.79-19.22,28.47-42.53,50.03-69.91,25.73-31.33,42.41-51.67,50.03-61.02.51-.62.98-1.19,1.4-1.71,16.63-23.02,29.1-44.19,37.41-63.52,6.75-13.25,11.38-26.5,13.87-39.75,1.66-8.31,2.49-16.7,2.49-25.17V-2.89c-1.82-39.49-16.81-73.57-44.97-102.25-8.92-8.31-18.22-15.92-27.9-22.83-.18-.13-.36-.26-.55-.39-24.58-14.55-51.85-21.82-81.83-21.82s-57.52,7.27-82.45,21.82c-.18.13-.37.26-.55.39-9.78,6.91-19,14.52-27.67,22.83-1.93,1.96-3.8,3.96-5.61,6-24.67,27.38-38.33,59.46-40.99,96.25v19.09c.42,8.21,1.53,16.6,3.35,25.17ZM1234.53,5.52v.78c0,1.3-.34,2.6-1.01,3.9-.52,1.3-1.3,2.65-2.34,4.05-.52.52-1.56,1.82-3.12,3.9-1.4,1.71-2.44,3.14-3.12,4.29-.88-1.14-1.97-2.57-3.27-4.29-1.71-2.08-2.75-3.43-3.12-4.05-1.04-1.45-1.82-2.75-2.34-3.9-.68-1.3-1.07-2.6-1.17-3.9v-1.17c.26-2.49,1.22-4.65,2.88-6.47.52-.52,1.12-.96,1.79-1.32,1.56-.94,3.3-1.4,5.22-1.4,1.82,0,3.51.47,5.07,1.4.52.36,1.12.81,1.79,1.32,1.66,1.82,2.57,3.97,2.73,6.47v.39ZM1283.4-51.21v-1.95c.52-8.57,3.9-16.03,10.13-22.37,1.97-1.97,4.05-3.66,6.23-5.07,5.46-3.38,11.51-5.07,18.16-5.07s12.57,1.69,17.92,5.07c2.18,1.4,4.31,3.09,6.39,5.07,6.13,6.34,9.46,13.79,9.98,22.37v4.29c0,4.83-1.17,9.59-3.51,14.26-1.97,4.26-4.78,8.94-8.42,14.03-1.56,1.82-5.33,6.42-11.3,13.79-4.78,5.97-8.47,11.12-11.07,15.43-2.86-4.31-6.62-9.51-11.3-15.59-5.87-7.43-9.64-12.11-11.3-14.03-3.64-5.35-6.44-9.98-8.42-13.87-2.18-4.94-3.35-9.61-3.51-14.03v-2.34ZM1268.98-31.5c1.3.78,2.47,1.61,3.51,2.49,3.38,3.64,5.2,7.79,5.46,12.47v2.57c0,2.6-.65,5.12-1.95,7.56-1.04,2.34-2.52,4.94-4.44,7.79-.94.94-3.09,3.48-6.47,7.64-2.6,3.12-4.6,5.9-6,8.34-1.45-2.44-3.53-5.3-6.23-8.57-3.27-4.16-5.3-6.75-6.08-7.79-2.08-2.86-3.64-5.33-4.68-7.4-1.14-2.7-1.79-5.22-1.95-7.56v-2.57c.26-4.68,2.16-8.83,5.69-12.47,1.04-.88,2.13-1.71,3.27-2.49,3.12-1.82,6.44-2.73,9.98-2.73s6.94.91,9.9,2.73ZM1154.65-85.66v-2.73c.88-12.47,5.82-23.2,14.81-32.19,2.7-2.6,5.61-5.07,8.73-7.4,7.95-4.52,16.65-6.78,26.11-6.78s18.16,2.26,25.95,6.78c3.12,2.34,6.03,4.81,8.73,7.4,8.99,8.99,13.74,19.72,14.26,32.19v6c0,6.91-1.69,13.74-5.07,20.5-2.6,6.08-6.57,12.76-11.92,20.03-2.08,2.6-7.46,9.22-16.13,19.87-6.91,8.57-12.18,15.85-15.82,21.82-4-5.97-9.38-13.38-16.13-22.21-8.57-10.65-13.98-17.33-16.21-20.03-5.3-7.69-9.25-14.26-11.85-19.72-3.27-7.12-5.09-13.87-5.46-20.26v-3.27Z" style="fill:#405b37; stroke-width:0px;"/><path d="M1176.08,78c1.04,21.04,9.09,39.23,24.16,54.55,4.52,4.52,9.46,8.6,14.81,12.24,13.09,7.79,27.56,11.69,43.41,11.69s30.63-3.9,43.88-11.69c5.2-3.64,10.13-7.72,14.81-12.24,15.07-15.33,23.38-33.51,24.94-54.55v-9.98c-.52-10.75-3.59-22.06-9.2-33.9-4.42-9.35-11.17-20.39-20.26-33.12-3.64-4.78-12.52-16.08-26.65-33.9-11.59-14.81-20.76-27.33-27.51-37.56-6.23,10.24-15.07,22.57-26.5,37.02-14.55,17.77-23.69,28.86-27.43,33.28-8.83,12.37-15.4,23.61-19.72,33.75-5.82,11.53-8.73,23.02-8.73,34.45v5.69c0,1.56,0,2.99,0,4.29ZM1240.14-15.36v-1.17c.26-4.68,2.16-8.83,5.69-12.47,1.04-.88,2.13-1.71,3.27-2.49,3.12-1.82,6.44-2.73,9.98-2.73s6.94.91,9.9,2.73c1.3.78,2.47,1.61,3.51,2.49,3.38,3.64,5.2,7.79,5.46,12.47v2.57c0,2.6-.65,5.12-1.95,7.56-1.04,2.34-2.52,4.94-4.44,7.79-.94.94-3.09,3.48-6.47,7.64-2.6,3.12-4.6,5.9-6,8.34-1.45-2.44-3.53-5.3-6.23-8.57-3.27-4.16-5.3-6.75-6.08-7.79-2.08-2.86-3.64-5.33-4.68-7.4-1.14-2.7-1.79-5.22-1.95-7.56v-1.4ZM1215.05,5.52v-.39c.26-2.49,1.22-4.65,2.88-6.47.52-.52,1.12-.96,1.79-1.32,1.56-.94,3.3-1.4,5.22-1.4,1.82,0,3.51.47,5.07,1.4.52.36,1.12.81,1.79,1.32,1.66,1.82,2.57,3.97,2.73,6.47v1.17c0,1.3-.34,2.6-1.01,3.9-.52,1.3-1.3,2.65-2.34,4.05-.52.52-1.56,1.82-3.12,3.9-1.4,1.71-2.44,3.14-3.12,4.29-.88-1.14-1.97-2.57-3.27-4.29-1.71-2.08-2.75-3.43-3.12-4.05-1.04-1.45-1.82-2.75-2.34-3.9-.68-1.3-1.07-2.6-1.17-3.9v-.78Z" style="fill:url(#d); stroke-width:0px;"/></g><g style="opacity:.08;"><path d="M593.64-56.4c2.86,12.57,7.4,25.61,13.64,39.12,5.89,12.18,13.89,25.95,24,41.31,4.34,6.59,9.07,13.48,14.18,20.65.84,1.11,1.83,2.41,2.96,3.9,8.18,10.63,24.08,30.76,47.7,60.4,21.56,27.8,38.71,51.31,51.44,70.53,11.79-19.22,28.47-42.53,50.03-69.91,25.73-31.33,42.41-51.67,50.03-61.02.51-.62.98-1.19,1.4-1.71,16.63-23.02,29.1-44.19,37.41-63.52,6.75-13.25,11.38-26.5,13.87-39.75,1.66-8.31,2.49-16.7,2.49-25.17v-19.09c-1.82-39.49-16.81-73.57-44.97-102.25-8.92-8.31-18.22-15.92-27.9-22.83-.18-.13-.36-.26-.55-.39-24.58-14.55-51.85-21.82-81.83-21.82s-57.52,7.27-82.45,21.82c-.18.13-.37.26-.55.39-9.78,6.91-19,14.52-27.67,22.83-1.93,1.96-3.8,3.96-5.61,6-24.67,27.38-38.33,59.46-40.99,96.25v19.09c.42,8.21,1.53,16.6,3.35,25.17ZM756.13-92.24v.78c0,1.3-.34,2.6-1.01,3.9-.52,1.3-1.3,2.65-2.34,4.05-.52.52-1.56,1.82-3.12,3.9-1.4,1.71-2.44,3.14-3.12,4.29-.88-1.14-1.97-2.57-3.27-4.29-1.71-2.08-2.75-3.43-3.12-4.05-1.04-1.45-1.82-2.75-2.34-3.9-.68-1.3-1.07-2.6-1.17-3.9v-1.17c.26-2.49,1.22-4.65,2.88-6.47.52-.52,1.12-.96,1.79-1.32,1.56-.94,3.3-1.4,5.22-1.4,1.82,0,3.51.47,5.07,1.4.52.36,1.12.81,1.79,1.32,1.66,1.82,2.57,3.97,2.73,6.47v.39ZM805-148.98v-1.95c.52-8.57,3.9-16.03,10.13-22.37,1.97-1.97,4.05-3.66,6.23-5.07,5.46-3.38,11.51-5.07,18.16-5.07s12.57,1.69,17.92,5.07c2.18,1.4,4.31,3.09,6.39,5.07,6.13,6.34,9.46,13.79,9.98,22.37v4.29c0,4.83-1.17,9.59-3.51,14.26-1.97,4.26-4.78,8.94-8.42,14.03-1.56,1.82-5.33,6.42-11.3,13.79-4.78,5.97-8.47,11.12-11.07,15.43-2.86-4.31-6.62-9.51-11.3-15.59-5.87-7.43-9.64-12.11-11.3-14.03-3.64-5.35-6.44-9.98-8.42-13.87-2.18-4.94-3.35-9.61-3.51-14.03v-2.34ZM790.58-129.26c1.3.78,2.47,1.61,3.51,2.49,3.38,3.64,5.2,7.79,5.46,12.47v2.57c0,2.6-.65,5.12-1.95,7.56-1.04,2.34-2.52,4.94-4.44,7.79-.94.94-3.09,3.48-6.47,7.64-2.6,3.12-4.6,5.9-6,8.34-1.45-2.44-3.53-5.3-6.23-8.57-3.27-4.16-5.3-6.75-6.08-7.79-2.08-2.86-3.64-5.33-4.68-7.4-1.14-2.7-1.79-5.22-1.95-7.56v-2.57c.26-4.68,2.16-8.83,5.69-12.47,1.04-.88,2.13-1.71,3.27-2.49,3.12-1.82,6.44-2.73,9.98-2.73s6.94.91,9.9,2.73ZM676.25-183.43v-2.73c.88-12.47,5.82-23.2,14.81-32.19,2.7-2.6,5.61-5.07,8.73-7.4,7.95-4.52,16.65-6.78,26.11-6.78s18.16,2.26,25.95,6.78c3.12,2.34,6.03,4.81,8.73,7.4,8.99,8.99,13.74,19.72,14.26,32.19v6c0,6.91-1.69,13.74-5.07,20.5-2.6,6.08-6.57,12.76-11.92,20.03-2.08,2.6-7.46,9.22-16.13,19.87-6.91,8.57-12.18,15.85-15.82,21.82-4-5.97-9.38-13.38-16.13-22.21-8.57-10.65-13.98-17.33-16.21-20.03-5.3-7.69-9.25-14.26-11.85-19.72-3.27-7.12-5.09-13.87-5.46-20.26v-3.27Z" style="fill:#405b37; stroke-width:0px;"/><path d="M697.68-19.77c1.04,21.04,9.09,39.23,24.16,54.55,4.52,4.52,9.46,8.6,14.81,12.24,13.09,7.79,27.56,11.69,43.41,11.69s30.63-3.9,43.88-11.69c5.2-3.64,10.13-7.72,14.81-12.24,15.07-15.33,23.38-33.51,24.94-54.55v-9.98c-.52-10.75-3.59-22.06-9.2-33.9-4.42-9.35-11.17-20.39-20.26-33.12-3.64-4.78-12.52-16.08-26.65-33.9-11.59-14.81-20.76-27.33-27.51-37.56-6.23,10.24-15.07,22.57-26.5,37.02-14.55,17.77-23.69,28.86-27.43,33.28-8.83,12.37-15.4,23.61-19.72,33.75-5.82,11.53-8.73,23.02-8.73,34.45v5.69c0,1.56,0,2.99,0,4.29ZM761.74-113.13v-1.17c.26-4.68,2.16-8.83,5.69-12.47,1.04-.88,2.13-1.71,3.27-2.49,3.12-1.82,6.44-2.73,9.98-2.73s6.94.91,9.9,2.73c1.3.78,2.47,1.61,3.51,2.49,3.38,3.64,5.2,7.79,5.46,12.47v2.57c0,2.6-.65,5.12-1.95,7.56-1.04,2.34-2.52,4.94-4.44,7.79-.94.94-3.09,3.48-6.47,7.64-2.6,3.12-4.6,5.9-6,8.34-1.45-2.44-3.53-5.3-6.23-8.57-3.27-4.16-5.3-6.75-6.08-7.79-2.08-2.86-3.64-5.33-4.68-7.4-1.14-2.7-1.79-5.22-1.95-7.56v-1.4ZM736.65-92.24v-.39c.26-2.49,1.22-4.65,2.88-6.47.52-.52,1.12-.96,1.79-1.32,1.56-.94,3.3-1.4,5.22-1.4,1.82,0,3.51.47,5.07,1.4.52.36,1.12.81,1.79,1.32,1.66,1.82,2.57,3.97,2.73,6.47v1.17c0,1.3-.34,2.6-1.01,3.9-.52,1.3-1.3,2.65-2.34,4.05-.52.52-1.56,1.82-3.12,3.9-1.4,1.71-2.44,3.14-3.12,4.29-.88-1.14-1.97-2.57-3.27-4.29-1.71-2.08-2.75-3.43-3.12-4.05-1.04-1.45-1.82-2.75-2.34-3.9-.68-1.3-1.07-2.6-1.17-3.9v-.78Z" style="fill:url(#e); stroke-width:0px;"/></g><g style="opacity:.1;"><path d="M1541.7,306.07c-2.5-11.02-6.49-22.44-11.95-34.28-5.16-10.67-12.17-22.74-21.03-36.19-3.8-5.78-7.94-11.81-12.43-18.1-.74-.98-1.6-2.11-2.59-3.41-7.17-9.32-21.1-26.96-41.79-52.92-18.89-24.36-33.92-44.96-45.07-61.8-10.33,16.84-24.95,37.26-43.84,61.25-22.54,27.45-37.16,45.28-43.84,53.47-.45.54-.86,1.04-1.23,1.5-14.57,20.17-25.49,38.72-32.78,55.65-5.92,11.61-9.97,23.22-12.16,34.83-1.46,7.28-2.19,14.64-2.19,22.06v16.73c1.59,34.6,14.73,64.46,39.4,89.59,7.82,7.28,15.97,13.95,24.45,20.01.16.11.32.23.48.34,21.53,12.75,45.43,19.12,71.7,19.12s50.4-6.37,72.25-19.12c.16-.11.32-.23.48-.34,8.57-6.06,16.65-12.72,24.24-20.01,1.69-1.72,3.33-3.47,4.92-5.26,21.61-23.99,33.59-52.1,35.92-84.34v-16.73c-.36-7.19-1.34-14.55-2.94-22.06ZM1399.32,337.49v-.68c0-1.14.3-2.28.89-3.41.46-1.14,1.14-2.32,2.05-3.55.46-.46,1.37-1.59,2.73-3.41,1.23-1.5,2.14-2.75,2.73-3.76.77,1,1.73,2.25,2.87,3.76,1.5,1.82,2.41,3,2.73,3.55.91,1.27,1.59,2.41,2.05,3.41.59,1.14.93,2.28,1.02,3.41v1.02c-.23,2.19-1.07,4.07-2.53,5.67-.46.46-.98.84-1.57,1.16-1.37.82-2.89,1.23-4.58,1.23-1.59,0-3.07-.41-4.44-1.23-.46-.32-.98-.71-1.57-1.16-1.46-1.59-2.25-3.48-2.39-5.67v-.34ZM1356.51,387.2v1.71c-.46,7.51-3.41,14.04-8.88,19.6-1.73,1.73-3.55,3.21-5.46,4.44-4.78,2.96-10.08,4.44-15.91,4.44s-11.02-1.48-15.71-4.44c-1.91-1.23-3.78-2.71-5.6-4.44-5.37-5.55-8.29-12.09-8.74-19.6v-3.76c0-4.23,1.02-8.4,3.07-12.5,1.73-3.73,4.19-7.83,7.38-12.29,1.37-1.59,4.67-5.62,9.9-12.09,4.19-5.24,7.42-9.74,9.7-13.52,2.5,3.78,5.8,8.33,9.9,13.66,5.14,6.51,8.44,10.61,9.9,12.29,3.19,4.69,5.65,8.74,7.38,12.16,1.91,4.32,2.94,8.42,3.07,12.29v2.05ZM1369.14,369.92c-1.14-.68-2.16-1.41-3.07-2.19-2.96-3.19-4.55-6.83-4.78-10.93v-2.25c0-2.28.57-4.48,1.71-6.62.91-2.05,2.21-4.32,3.89-6.83.82-.82,2.71-3.05,5.67-6.69,2.28-2.73,4.03-5.17,5.26-7.31,1.27,2.14,3.1,4.64,5.46,7.51,2.87,3.64,4.64,5.92,5.33,6.83,1.82,2.5,3.19,4.67,4.1,6.49,1,2.37,1.57,4.58,1.71,6.62v2.25c-.23,4.1-1.89,7.74-4.99,10.93-.91.77-1.87,1.5-2.87,2.19-2.73,1.59-5.65,2.39-8.74,2.39s-6.08-.8-8.67-2.39ZM1469.32,417.38v2.39c-.77,10.93-5.1,20.33-12.97,28.2-2.37,2.28-4.92,4.44-7.65,6.49-6.97,3.96-14.59,5.94-22.88,5.94s-15.91-1.98-22.74-5.94c-2.73-2.05-5.28-4.21-7.65-6.49-7.88-7.88-12.04-17.28-12.5-28.2v-5.26c0-6.05,1.48-12.04,4.44-17.96,2.28-5.33,5.76-11.18,10.45-17.55,1.82-2.28,6.53-8.08,14.14-17.41,6.05-7.51,10.68-13.89,13.86-19.12,3.51,5.24,8.22,11.72,14.14,19.46,7.51,9.33,12.25,15.18,14.2,17.55,4.64,6.74,8.1,12.5,10.38,17.28,2.87,6.24,4.46,12.16,4.78,17.75v2.87Z" style="fill:#405b37; stroke-width:0px;"/><path d="M1450.54,273.98c-.91-18.44-7.97-34.37-21.17-47.8-3.96-3.96-8.29-7.53-12.97-10.72-11.47-6.83-24.15-10.24-38.04-10.24s-26.84,3.41-38.45,10.24c-4.55,3.19-8.88,6.76-12.97,10.72-13.2,13.43-20.49,29.36-21.85,47.8v8.74c.46,9.42,3.14,19.33,8.06,29.71,3.87,8.19,9.79,17.87,17.75,29.02,3.19,4.19,10.97,14.09,23.35,29.71,10.15,12.97,18.19,23.95,24.11,32.91,5.46-8.97,13.2-19.78,23.22-32.44,12.75-15.57,20.76-25.29,24.04-29.16,7.74-10.84,13.5-20.69,17.28-29.57,5.1-10.11,7.65-20.17,7.65-30.18v-4.99c0-1.37,0-2.62,0-3.76ZM1394.41,355.79v1.02c-.23,4.1-1.89,7.74-4.99,10.93-.91.77-1.87,1.5-2.87,2.19-2.73,1.59-5.65,2.39-8.74,2.39s-6.08-.8-8.67-2.39c-1.14-.68-2.16-1.41-3.07-2.19-2.96-3.19-4.55-6.83-4.78-10.93v-2.25c0-2.28.57-4.48,1.71-6.62.91-2.05,2.21-4.32,3.89-6.83.82-.82,2.71-3.05,5.67-6.69,2.28-2.73,4.03-5.17,5.26-7.31,1.27,2.14,3.1,4.64,5.46,7.51,2.87,3.64,4.64,5.92,5.33,6.83,1.82,2.5,3.19,4.67,4.1,6.49,1,2.37,1.57,4.58,1.71,6.62v1.23ZM1416.39,337.49v.34c-.23,2.19-1.07,4.07-2.53,5.67-.46.46-.98.84-1.57,1.16-1.37.82-2.89,1.23-4.58,1.23-1.59,0-3.07-.41-4.44-1.23-.46-.32-.98-.71-1.57-1.16-1.46-1.59-2.25-3.48-2.39-5.67v-1.02c0-1.14.3-2.28.89-3.41.46-1.14,1.14-2.32,2.05-3.55.46-.46,1.37-1.59,2.73-3.41,1.23-1.5,2.14-2.75,2.73-3.76.77,1,1.73,2.25,2.87,3.76,1.5,1.82,2.41,3,2.73,3.55.91,1.27,1.59,2.41,2.05,3.41.59,1.14.93,2.28,1.02,3.41v.68Z" style="fill:url(#f); stroke-width:0px;"/></g><g style="opacity:.1;"><path d="M1610.41,1048.89c-3.63-15.95-9.39-32.5-17.3-49.64-7.47-15.45-17.63-32.92-30.46-52.41-5.51-8.36-11.5-17.1-18-26.2-1.07-1.41-2.32-3.06-3.76-4.94-10.38-13.49-30.55-39.03-60.52-76.64-27.36-35.27-49.11-65.1-65.26-89.49-14.96,24.39-36.13,53.96-63.48,88.7-32.64,39.75-53.8,65.56-63.48,77.43-.65.79-1.24,1.51-1.78,2.18-21.1,29.2-36.92,56.07-47.46,80.59-8.57,16.81-14.44,33.62-17.6,50.43-2.11,10.55-3.16,21.19-3.16,31.94v24.23c2.31,50.1,21.33,93.35,57.06,129.74,11.32,10.55,23.12,20.2,35.4,28.97.23.17.46.33.69.49,31.18,18.46,65.79,27.69,103.83,27.69s72.98-9.23,104.62-27.69c.23-.16.46-.33.69-.49,12.4-8.77,24.1-18.43,35.1-28.97,2.45-2.49,4.82-5.03,7.12-7.61,31.3-34.74,48.64-75.45,52.01-122.12v-24.23c-.53-10.42-1.94-21.06-4.25-31.94ZM1404.23,1094.37v-.99c0-1.65.43-3.3,1.29-4.94.66-1.65,1.65-3.36,2.97-5.14.66-.66,1.98-2.31,3.96-4.94,1.78-2.18,3.1-3.99,3.96-5.44,1.12,1.45,2.51,3.26,4.15,5.44,2.18,2.64,3.49,4.35,3.96,5.14,1.32,1.85,2.31,3.49,2.97,4.94.86,1.65,1.35,3.3,1.48,4.94v1.48c-.33,3.16-1.55,5.9-3.66,8.21-.66.66-1.42,1.22-2.27,1.68-1.98,1.19-4.19,1.78-6.63,1.78-2.31,0-4.45-.59-6.43-1.78-.66-.46-1.42-1.02-2.27-1.68-2.11-2.31-3.26-5.04-3.46-8.21v-.49ZM1342.23,1166.36v2.47c-.66,10.88-4.94,20.34-12.85,28.38-2.51,2.51-5.14,4.65-7.91,6.43-6.92,4.29-14.6,6.43-23.04,6.43s-15.95-2.14-22.74-6.43c-2.77-1.78-5.47-3.92-8.11-6.43-7.78-8.04-12-17.5-12.66-28.38v-5.44c0-6.13,1.48-12.16,4.45-18.1,2.51-5.41,6.06-11.34,10.68-17.8,1.98-2.31,6.76-8.14,14.34-17.5,6.06-7.58,10.75-14.11,14.04-19.58,3.63,5.47,8.41,12.06,14.34,19.78,7.45,9.43,12.23,15.36,14.34,17.8,4.61,6.79,8.17,12.66,10.68,17.6,2.77,6.26,4.25,12.2,4.45,17.8v2.97ZM1360.52,1141.34c-1.65-.99-3.13-2.04-4.45-3.16-4.28-4.61-6.59-9.89-6.92-15.82v-3.26c0-3.3.82-6.49,2.47-9.59,1.32-2.97,3.2-6.26,5.64-9.89,1.19-1.19,3.92-4.42,8.21-9.69,3.3-3.96,5.83-7.48,7.61-10.58,1.85,3.1,4.48,6.72,7.91,10.88,4.15,5.27,6.72,8.57,7.71,9.89,2.64,3.63,4.61,6.76,5.93,9.39,1.45,3.43,2.27,6.63,2.47,9.59v3.26c-.33,5.93-2.74,11.21-7.22,15.82-1.32,1.12-2.7,2.18-4.15,3.16-3.96,2.31-8.17,3.46-12.66,3.46s-8.8-1.15-12.56-3.46ZM1505.59,1210.07v3.46c-1.12,15.82-7.38,29.43-18.79,40.84-3.43,3.3-7.12,6.43-11.08,9.39-10.09,5.74-21.13,8.6-33.13,8.6s-23.04-2.87-32.93-8.6c-3.96-2.97-7.65-6.1-11.08-9.39-11.4-11.4-17.44-25.02-18.1-40.84v-7.61c0-8.77,2.14-17.44,6.43-26.01,3.3-7.71,8.34-16.18,15.13-25.41,2.64-3.3,9.46-11.7,20.47-25.22,8.77-10.88,15.46-20.11,20.07-27.69,5.08,7.58,11.9,16.98,20.47,28.18,10.88,13.51,17.73,21.99,20.57,25.41,6.72,9.76,11.73,18.1,15.03,25.02,4.15,9.03,6.46,17.6,6.92,25.71v4.15Z" style="fill:#405b37; stroke-width:0px;"/><path d="M1478.4,1002.41c-1.32-26.7-11.54-49.77-30.65-69.22-5.74-5.74-12-10.91-18.79-15.52-16.61-9.89-34.97-14.83-55.08-14.83s-38.86,4.94-55.67,14.83c-6.59,4.61-12.85,9.79-18.79,15.52-19.12,19.45-29.67,42.52-31.64,69.22v12.66c.66,13.65,4.55,27.98,11.67,43.01,5.6,11.87,14.17,25.87,25.71,42.03,4.61,6.06,15.89,20.4,33.82,43.01,14.7,18.79,26.34,34.68,34.91,47.66,7.91-12.99,19.12-28.64,33.62-46.97,18.46-22.55,30.06-36.62,34.81-42.22,11.21-15.69,19.55-29.96,25.02-42.82,7.38-14.63,11.08-29.2,11.08-43.71v-7.22c0-1.98,0-3.79,0-5.44ZM1397.11,1120.87v1.48c-.33,5.93-2.74,11.21-7.22,15.82-1.32,1.12-2.7,2.18-4.15,3.16-3.96,2.31-8.17,3.46-12.66,3.46s-8.8-1.15-12.56-3.46c-1.65-.99-3.13-2.04-4.45-3.16-4.28-4.61-6.59-9.89-6.92-15.82v-3.26c0-3.3.82-6.49,2.47-9.59,1.32-2.97,3.2-6.26,5.64-9.89,1.19-1.19,3.92-4.42,8.21-9.69,3.3-3.96,5.83-7.48,7.61-10.58,1.85,3.1,4.48,6.72,7.91,10.88,4.15,5.27,6.72,8.57,7.71,9.89,2.64,3.63,4.61,6.76,5.93,9.39,1.45,3.43,2.27,6.63,2.47,9.59v1.78ZM1428.95,1094.37v.49c-.33,3.16-1.55,5.9-3.66,8.21-.66.66-1.42,1.22-2.27,1.68-1.98,1.19-4.19,1.78-6.63,1.78-2.31,0-4.45-.59-6.43-1.78-.66-.46-1.42-1.02-2.27-1.68-2.11-2.31-3.26-5.04-3.46-8.21v-1.48c0-1.65.43-3.3,1.29-4.94.66-1.65,1.65-3.36,2.97-5.14.66-.66,1.98-2.31,3.96-4.94,1.78-2.18,3.1-3.99,3.96-5.44,1.12,1.45,2.51,3.26,4.15,5.44,2.18,2.64,3.49,4.35,3.96,5.14,1.32,1.85,2.31,3.49,2.97,4.94.86,1.65,1.35,3.3,1.48,4.94v.99Z" style="fill:url(#g); stroke-width:0px;"/></g><g style="opacity:.07;"><path d="M30.78,643.36c4.71,20.73,12.21,42.24,22.49,64.51,9.71,20.08,22.91,42.79,39.58,68.11,7.16,10.87,14.95,22.22,23.39,34.06,1.39,1.84,3.01,3.98,4.88,6.43,13.49,17.53,39.71,50.73,78.65,99.6,35.56,45.84,63.83,84.61,84.82,116.31,19.45-31.7,46.95-70.13,82.51-115.28,42.42-51.67,69.93-85.21,82.51-100.63.84-1.02,1.61-1.96,2.31-2.83,27.42-37.95,47.98-72.87,61.69-104.74,11.14-21.85,18.76-43.69,22.88-65.54,2.74-13.71,4.11-27.54,4.11-41.51v-31.49c-3-65.11-27.72-121.32-74.15-168.61-14.72-13.71-30.05-26.26-46.01-37.65-.3-.21-.6-.43-.9-.64-40.52-23.99-85.5-35.98-134.94-35.98s-94.84,11.99-135.97,35.98c-.3.21-.6.43-.9.64-16.12,11.4-31.33,23.95-45.62,37.65-3.18,3.24-6.27,6.53-9.25,9.9-40.68,45.15-63.21,98.06-67.6,158.72v31.49c.69,13.54,2.53,27.37,5.53,41.51ZM298.73,584.25v1.29c0,2.14-.56,4.28-1.67,6.43-.86,2.14-2.14,4.37-3.86,6.68-.86.86-2.57,3-5.14,6.43-2.31,2.83-4.03,5.18-5.14,7.07-1.46-1.88-3.26-4.24-5.4-7.07-2.83-3.43-4.54-5.65-5.14-6.68-1.71-2.4-3-4.54-3.86-6.43-1.11-2.14-1.76-4.28-1.93-6.43v-1.93c.43-4.11,2.01-7.67,4.76-10.67.86-.86,1.84-1.58,2.96-2.18,2.57-1.54,5.44-2.31,8.61-2.31,3,0,5.78.77,8.35,2.31.86.6,1.84,1.33,2.96,2.18,2.74,3,4.24,6.55,4.5,10.67v.64ZM379.31,490.69v-3.21c.86-14.14,6.43-26.43,16.71-36.88,3.26-3.26,6.68-6.04,10.28-8.35,9-5.57,18.98-8.35,29.94-8.35s20.73,2.78,29.56,8.35c3.6,2.31,7.11,5.1,10.54,8.35,10.11,10.45,15.59,22.75,16.45,36.88v7.07c0,7.97-1.93,15.81-5.78,23.52-3.26,7.03-7.88,14.74-13.88,23.13-2.57,3-8.78,10.58-18.63,22.75-7.88,9.85-13.97,18.33-18.25,25.45-4.71-7.11-10.92-15.68-18.63-25.7-9.68-12.25-15.89-19.96-18.63-23.13-6-8.82-10.62-16.45-13.88-22.88-3.6-8.14-5.53-15.85-5.78-23.13v-3.86ZM355.54,523.2c2.14,1.29,4.07,2.66,5.78,4.11,5.57,6,8.57,12.85,9,20.56v4.24c0,4.28-1.07,8.44-3.21,12.47-1.71,3.86-4.16,8.14-7.33,12.85-1.54,1.54-5.1,5.74-10.67,12.59-4.28,5.14-7.58,9.72-9.9,13.75-2.4-4.03-5.83-8.74-10.28-14.14-5.4-6.85-8.74-11.14-10.02-12.85-3.43-4.71-6-8.78-7.71-12.21-1.88-4.46-2.96-8.61-3.21-12.47v-4.24c.43-7.71,3.56-14.56,9.38-20.56,1.71-1.46,3.51-2.83,5.4-4.11,5.14-3,10.62-4.5,16.45-4.5s11.44,1.5,16.32,4.5ZM167.01,433.88v-4.5c1.46-20.56,9.6-38.25,24.42-53.08,4.46-4.28,9.25-8.35,14.39-12.21,13.11-7.45,27.46-11.18,43.05-11.18s29.94,3.73,42.8,11.18c5.14,3.86,9.94,7.93,14.39,12.21,14.82,14.82,22.66,32.51,23.52,53.08v9.9c0,11.39-2.78,22.66-8.35,33.8-4.28,10.02-10.84,21.03-19.66,33.03-3.43,4.28-12.29,15.21-26.6,32.77-11.39,14.14-20.09,26.13-26.09,35.98-6.6-9.85-15.46-22.06-26.6-36.63-14.14-17.56-23.05-28.57-26.73-33.03-8.74-12.68-15.25-23.52-19.53-32.51-5.4-11.74-8.4-22.88-9-33.41v-5.4Z" style="fill:#405b37; stroke-width:0px;"/><path d="M202.35,703.76c1.71,34.7,14.99,64.69,39.84,89.96,7.45,7.45,15.59,14.18,24.42,20.18,21.59,12.85,45.45,19.28,71.58,19.28s50.51-6.43,72.35-19.28c8.57-6,16.71-12.72,24.42-20.18,24.85-25.27,38.55-55.26,41.12-89.96v-16.45c-.86-17.73-5.91-36.37-15.16-55.9-7.28-15.42-18.42-33.63-33.41-54.62-6-7.88-20.65-26.52-43.95-55.9-19.11-24.42-34.23-45.07-45.37-61.94-10.28,16.88-24.85,37.23-43.69,61.04-23.99,29.3-39.07,47.59-45.24,54.88-14.56,20.39-25.4,38.94-32.51,55.65-9.6,19.02-14.39,37.95-14.39,56.8v9.38c0,2.57,0,4.93,0,7.07ZM307.99,549.8v-1.93c.43-7.71,3.56-14.56,9.38-20.56,1.71-1.46,3.51-2.83,5.4-4.11,5.14-3,10.62-4.5,16.45-4.5s11.44,1.5,16.32,4.5c2.14,1.29,4.07,2.66,5.78,4.11,5.57,6,8.57,12.85,9,20.56v4.24c0,4.28-1.07,8.44-3.21,12.47-1.71,3.86-4.16,8.14-7.33,12.85-1.54,1.54-5.1,5.74-10.67,12.59-4.28,5.14-7.58,9.72-9.9,13.75-2.4-4.03-5.83-8.74-10.28-14.14-5.4-6.85-8.74-11.14-10.02-12.85-3.43-4.71-6-8.78-7.71-12.21-1.88-4.46-2.96-8.61-3.21-12.47v-2.31ZM266.61,584.25v-.64c.43-4.11,2.01-7.67,4.76-10.67.86-.86,1.84-1.58,2.96-2.18,2.57-1.54,5.44-2.31,8.61-2.31,3,0,5.78.77,8.35,2.31.86.6,1.84,1.33,2.96,2.18,2.74,3,4.24,6.55,4.5,10.67v1.93c0,2.14-.56,4.28-1.67,6.43-.86,2.14-2.14,4.37-3.86,6.68-.86.86-2.57,3-5.14,6.43-2.31,2.83-4.03,5.18-5.14,7.07-1.46-1.88-3.26-4.24-5.4-7.07-2.83-3.43-4.54-5.65-5.14-6.68-1.71-2.4-3-4.54-3.86-6.43-1.11-2.14-1.76-4.28-1.93-6.43v-1.29Z" style="fill:url(#h); stroke-width:0px;"/></g><g style="opacity:.05;"><path d="M1483.92,691.96c4.71,20.73,12.21,42.24,22.49,64.51,9.71,20.08,22.91,42.79,39.58,68.11,7.16,10.87,14.95,22.22,23.39,34.06,1.39,1.84,3.01,3.98,4.88,6.43,13.49,17.53,39.71,50.73,78.65,99.6,35.56,45.84,63.83,84.61,84.82,116.31,19.45-31.7,46.95-70.13,82.51-115.28,42.42-51.67,69.93-85.21,82.51-100.63.84-1.02,1.61-1.96,2.31-2.83,27.42-37.95,47.98-72.87,61.69-104.74,11.14-21.85,18.76-43.69,22.88-65.54,2.74-13.71,4.11-27.54,4.11-41.51v-31.49c-3-65.11-27.72-121.32-74.15-168.61-14.72-13.71-30.05-26.26-46.01-37.65-.3-.21-.6-.43-.9-.64-40.52-23.99-85.5-35.98-134.94-35.98s-94.84,11.99-135.97,35.98c-.3.21-.6.43-.9.64-16.12,11.4-31.33,23.95-45.62,37.65-3.18,3.24-6.27,6.53-9.25,9.9-40.68,45.15-63.21,98.06-67.6,158.72v31.49c.69,13.54,2.53,27.37,5.53,41.51ZM1751.87,632.84v1.29c0,2.14-.56,4.28-1.67,6.43-.86,2.14-2.14,4.37-3.86,6.68-.86.86-2.57,3-5.14,6.43-2.31,2.83-4.03,5.18-5.14,7.07-1.46-1.88-3.26-4.24-5.4-7.07-2.83-3.43-4.54-5.65-5.14-6.68-1.71-2.4-3-4.54-3.86-6.43-1.11-2.14-1.76-4.28-1.93-6.43v-1.93c.43-4.11,2.01-7.67,4.76-10.67.86-.86,1.84-1.58,2.96-2.18,2.57-1.54,5.44-2.31,8.61-2.31,3,0,5.78.77,8.35,2.31.86.6,1.84,1.33,2.96,2.18,2.74,3,4.24,6.55,4.5,10.67v.64ZM1832.45,539.28v-3.21c.86-14.14,6.43-26.43,16.71-36.88,3.26-3.26,6.68-6.04,10.28-8.35,9-5.57,18.98-8.35,29.94-8.35s20.73,2.78,29.56,8.35c3.6,2.31,7.11,5.1,10.54,8.35,10.11,10.45,15.59,22.75,16.45,36.88v7.07c0,7.97-1.93,15.81-5.78,23.52-3.26,7.03-7.88,14.74-13.88,23.13-2.57,3-8.78,10.58-18.63,22.75-7.88,9.85-13.97,18.33-18.25,25.45-4.71-7.11-10.92-15.68-18.63-25.7-9.68-12.25-15.89-19.96-18.63-23.13-6-8.82-10.62-16.45-13.88-22.88-3.6-8.14-5.53-15.85-5.78-23.13v-3.86ZM1808.68,571.8c2.14,1.29,4.07,2.66,5.78,4.11,5.57,6,8.57,12.85,9,20.56v4.24c0,4.28-1.07,8.44-3.21,12.47-1.71,3.86-4.16,8.14-7.33,12.85-1.54,1.54-5.1,5.74-10.67,12.59-4.28,5.14-7.58,9.72-9.9,13.75-2.4-4.03-5.83-8.74-10.28-14.14-5.4-6.85-8.74-11.14-10.02-12.85-3.43-4.71-6-8.78-7.71-12.21-1.88-4.46-2.96-8.61-3.21-12.47v-4.24c.43-7.71,3.56-14.56,9.38-20.56,1.71-1.46,3.51-2.83,5.4-4.11,5.14-3,10.62-4.5,16.45-4.5s11.44,1.5,16.32,4.5ZM1620.15,482.48v-4.5c1.46-20.56,9.6-38.25,24.42-53.08,4.46-4.28,9.25-8.35,14.39-12.21,13.11-7.45,27.46-11.18,43.05-11.18s29.94,3.73,42.8,11.18c5.14,3.86,9.94,7.93,14.39,12.21,14.82,14.82,22.66,32.51,23.52,53.08v9.9c0,11.39-2.78,22.66-8.35,33.8-4.28,10.02-10.84,21.03-19.66,33.03-3.43,4.28-12.29,15.21-26.6,32.77-11.39,14.14-20.09,26.13-26.09,35.98-6.6-9.85-15.46-22.06-26.6-36.63-14.14-17.56-23.05-28.57-26.73-33.03-8.74-12.68-15.25-23.52-19.53-32.51-5.4-11.74-8.4-22.88-9-33.41v-5.4Z" style="fill:#405b37; stroke-width:0px;"/><path d="M1655.49,752.36c1.71,34.7,14.99,64.69,39.84,89.96,7.45,7.45,15.59,14.18,24.42,20.18,21.59,12.85,45.45,19.28,71.58,19.28s50.51-6.43,72.35-19.28c8.57-6,16.71-12.72,24.42-20.18,24.85-25.27,38.55-55.26,41.12-89.96v-16.45c-.86-17.73-5.91-36.37-15.16-55.9-7.28-15.42-18.42-33.63-33.41-54.62-6-7.88-20.65-26.52-43.95-55.9-19.11-24.42-34.23-45.07-45.37-61.94-10.28,16.88-24.85,37.23-43.69,61.04-23.99,29.3-39.07,47.59-45.24,54.88-14.56,20.39-25.4,38.94-32.51,55.65-9.6,19.02-14.39,37.95-14.39,56.8v9.38c0,2.57,0,4.93,0,7.07ZM1761.13,598.4v-1.93c.43-7.71,3.56-14.56,9.38-20.56,1.71-1.46,3.51-2.83,5.4-4.11,5.14-3,10.62-4.5,16.45-4.5s11.44,1.5,16.32,4.5c2.14,1.29,4.07,2.66,5.78,4.11,5.57,6,8.57,12.85,9,20.56v4.24c0,4.28-1.07,8.44-3.21,12.47-1.71,3.86-4.16,8.14-7.33,12.85-1.54,1.54-5.1,5.74-10.67,12.59-4.28,5.14-7.58,9.72-9.9,13.75-2.4-4.03-5.83-8.74-10.28-14.14-5.4-6.85-8.74-11.14-10.02-12.85-3.43-4.71-6-8.78-7.71-12.21-1.88-4.46-2.96-8.61-3.21-12.47v-2.31ZM1719.75,632.84v-.64c.43-4.11,2.01-7.67,4.76-10.67.86-.86,1.84-1.58,2.96-2.18,2.57-1.54,5.44-2.31,8.61-2.31,3,0,5.78.77,8.35,2.31.86.6,1.84,1.33,2.96,2.18,2.74,3,4.24,6.55,4.5,10.67v1.93c0,2.14-.56,4.28-1.67,6.43-.86,2.14-2.14,4.37-3.86,6.68-.86.86-2.57,3-5.14,6.43-2.31,2.83-4.03,5.18-5.14,7.07-1.46-1.88-3.26-4.24-5.4-7.07-2.83-3.43-4.54-5.65-5.14-6.68-1.71-2.4-3-4.54-3.86-6.43-1.11-2.14-1.76-4.28-1.93-6.43v-1.29Z" style="fill:url(#i); stroke-width:0px;"/></g><g style="opacity:.1;"><path d="M682.98,198.94c-2.5-11.02-6.49-22.44-11.95-34.28-5.16-10.67-12.17-22.74-21.03-36.19-3.8-5.78-7.94-11.81-12.43-18.1-.74-.98-1.6-2.11-2.59-3.41-7.17-9.32-21.1-26.96-41.79-52.92-18.89-24.36-33.92-44.96-45.07-61.8-10.33,16.84-24.95,37.26-43.84,61.25-22.54,27.45-37.16,45.28-43.84,53.47-.45.54-.86,1.04-1.23,1.5-14.57,20.17-25.49,38.72-32.78,55.65-5.92,11.61-9.97,23.22-12.16,34.83-1.46,7.28-2.19,14.64-2.19,22.06v16.73c1.59,34.6,14.73,64.46,39.4,89.59,7.82,7.28,15.97,13.95,24.45,20.01.16.11.32.23.48.34,21.53,12.75,45.43,19.12,71.7,19.12s50.4-6.37,72.25-19.12c.16-.11.32-.23.48-.34,8.57-6.06,16.65-12.72,24.24-20.01,1.69-1.72,3.33-3.47,4.92-5.26,21.61-23.99,33.59-52.1,35.92-84.34v-16.73c-.36-7.19-1.34-14.55-2.94-22.06ZM540.6,230.35v-.68c0-1.14.3-2.28.89-3.41.46-1.14,1.14-2.32,2.05-3.55.46-.46,1.37-1.59,2.73-3.41,1.23-1.5,2.14-2.75,2.73-3.76.77,1,1.73,2.25,2.87,3.76,1.5,1.82,2.41,3,2.73,3.55.91,1.27,1.59,2.41,2.05,3.41.59,1.14.93,2.28,1.02,3.41v1.02c-.23,2.19-1.07,4.07-2.53,5.67-.46.46-.98.84-1.57,1.16-1.37.82-2.89,1.23-4.58,1.23-1.59,0-3.07-.41-4.44-1.23-.46-.32-.98-.71-1.57-1.16-1.46-1.59-2.25-3.48-2.39-5.67v-.34ZM497.78,280.07v1.71c-.46,7.51-3.41,14.04-8.88,19.6-1.73,1.73-3.55,3.21-5.46,4.44-4.78,2.96-10.08,4.44-15.91,4.44s-11.02-1.48-15.71-4.44c-1.91-1.23-3.78-2.71-5.6-4.44-5.37-5.55-8.29-12.09-8.74-19.6v-3.76c0-4.23,1.02-8.4,3.07-12.5,1.73-3.73,4.19-7.83,7.38-12.29,1.37-1.59,4.67-5.62,9.9-12.09,4.19-5.24,7.42-9.74,9.7-13.52,2.5,3.78,5.8,8.33,9.9,13.66,5.14,6.51,8.44,10.61,9.9,12.29,3.19,4.69,5.65,8.74,7.38,12.16,1.91,4.32,2.94,8.42,3.07,12.29v2.05ZM510.41,262.79c-1.14-.68-2.16-1.41-3.07-2.19-2.96-3.19-4.55-6.83-4.78-10.93v-2.25c0-2.28.57-4.48,1.71-6.62.91-2.05,2.21-4.32,3.89-6.83.82-.82,2.71-3.05,5.67-6.69,2.28-2.73,4.03-5.17,5.26-7.31,1.27,2.14,3.1,4.64,5.46,7.51,2.87,3.64,4.64,5.92,5.33,6.83,1.82,2.5,3.19,4.67,4.1,6.49,1,2.37,1.57,4.58,1.71,6.62v2.25c-.23,4.1-1.89,7.74-4.99,10.93-.91.77-1.87,1.5-2.87,2.19-2.73,1.59-5.65,2.39-8.74,2.39s-6.08-.8-8.67-2.39ZM610.59,310.25v2.39c-.77,10.93-5.1,20.33-12.97,28.2-2.37,2.28-4.92,4.44-7.65,6.49-6.97,3.96-14.59,5.94-22.88,5.94s-15.91-1.98-22.74-5.94c-2.73-2.05-5.28-4.21-7.65-6.49-7.88-7.88-12.04-17.28-12.5-28.2v-5.26c0-6.05,1.48-12.04,4.44-17.96,2.28-5.33,5.76-11.18,10.45-17.55,1.82-2.28,6.53-8.08,14.14-17.41,6.05-7.51,10.68-13.89,13.86-19.12,3.51,5.24,8.22,11.72,14.14,19.46,7.51,9.33,12.25,15.18,14.2,17.55,4.64,6.74,8.1,12.5,10.38,17.28,2.87,6.24,4.46,12.16,4.78,17.75v2.87Z" style="fill:#405b37; stroke-width:0px;"/><path d="M591.81,166.84c-.91-18.44-7.97-34.37-21.17-47.8-3.96-3.96-8.29-7.53-12.97-10.72-11.47-6.83-24.15-10.24-38.04-10.24s-26.84,3.41-38.45,10.24c-4.55,3.19-8.88,6.76-12.97,10.72-13.2,13.43-20.49,29.36-21.85,47.8v8.74c.46,9.42,3.14,19.33,8.06,29.71,3.87,8.19,9.79,17.87,17.75,29.02,3.19,4.19,10.97,14.09,23.35,29.71,10.15,12.97,18.19,23.95,24.11,32.91,5.46-8.97,13.2-19.78,23.22-32.44,12.75-15.57,20.76-25.29,24.04-29.16,7.74-10.84,13.5-20.69,17.28-29.57,5.1-10.11,7.65-20.17,7.65-30.18v-4.99c0-1.37,0-2.62,0-3.76ZM535.68,248.65v1.02c-.23,4.1-1.89,7.74-4.99,10.93-.91.77-1.87,1.5-2.87,2.19-2.73,1.59-5.65,2.39-8.74,2.39s-6.08-.8-8.67-2.39c-1.14-.68-2.16-1.41-3.07-2.19-2.96-3.19-4.55-6.83-4.78-10.93v-2.25c0-2.28.57-4.48,1.71-6.62.91-2.05,2.21-4.32,3.89-6.83.82-.82,2.71-3.05,5.67-6.69,2.28-2.73,4.03-5.17,5.26-7.31,1.27,2.14,3.1,4.64,5.46,7.51,2.87,3.64,4.64,5.92,5.33,6.83,1.82,2.5,3.19,4.67,4.1,6.49,1,2.37,1.57,4.58,1.71,6.62v1.23ZM557.67,230.35v.34c-.23,2.19-1.07,4.07-2.53,5.67-.46.46-.98.84-1.57,1.16-1.37.82-2.89,1.23-4.58,1.23-1.59,0-3.07-.41-4.44-1.23-.46-.32-.98-.71-1.57-1.16-1.46-1.59-2.25-3.48-2.39-5.67v-1.02c0-1.14.3-2.28.89-3.41.46-1.14,1.14-2.32,2.05-3.55.46-.46,1.37-1.59,2.73-3.41,1.23-1.5,2.14-2.75,2.73-3.76.77,1,1.73,2.25,2.87,3.76,1.5,1.82,2.41,3,2.73,3.55.91,1.27,1.59,2.41,2.05,3.41.59,1.14.93,2.28,1.02,3.41v.68Z" style="fill:url(#j); stroke-width:0px;"/></g></svg>