<?xml version="1.0" encoding="UTF-8"?><svg id="b" xmlns="http://www.w3.org/2000/svg" width="2160.99" height="1024" xmlns:xlink="http://www.w3.org/1999/xlink" viewBox="0 0 2160.99 1024"><defs><linearGradient id="c" x1="869.85" y1="298.34" x2="869.85" y2="814.63" gradientUnits="userSpaceOnUse"><stop offset="0" stop-color="#e5ff29"/><stop offset=".73" stop-color="#405b37"/></linearGradient><linearGradient id="d" x1="1631.89" y1="619.34" x2="1631.89" y2="840.48" gradientTransform="translate(2887.98 774.4) rotate(-180)" xlink:href="#c"/><linearGradient id="e" x1="2107.29" y1="717.11" x2="2107.29" y2="938.25" gradientTransform="translate(2887.98 774.4) rotate(-180)" xlink:href="#c"/><linearGradient id="f" x1="1085.75" y1="497.13" x2="1085.75" y2="686.31" gradientTransform="translate(297.01 -283.34)" xlink:href="#c"/><linearGradient id="g" x1="1064.94" y1="1177.35" x2="1064.94" y2="1465.63" gradientTransform="translate(297.01 -283.34)" xlink:href="#c"/><linearGradient id="h" x1="-27.63" y1="1068.81" x2="-27.63" y2="1433.47" gradientTransform="translate(311.58 1899.64) rotate(-180)" xlink:href="#c"/><linearGradient id="i" x1="-1480.77" y1="1020.21" x2="-1480.77" y2="1384.87" gradientTransform="translate(311.58 1899.64) rotate(-180)" xlink:href="#c"/><linearGradient id="j" x1="221.08" y1="383.66" x2="221.08" y2="577.43" gradientTransform="translate(297.01 -283.34)" xlink:href="#c"/></defs><g style="opacity:.35;"><path d="M1300.77,563.77c-6.58-29.35-17.06-59.8-31.42-91.34-13.57-28.43-32-60.58-55.3-96.43-10-15.39-20.89-31.46-32.68-48.22-1.94-2.6-4.21-5.63-6.82-9.1-18.85-24.82-55.47-71.82-109.89-141.01-49.68-64.9-89.18-119.78-118.5-164.67-27.17,44.88-65.6,99.28-115.27,163.21-59.27,73.15-97.7,120.64-115.27,142.47-1.17,1.45-2.25,2.78-3.23,4-38.3,53.74-67.03,103.17-86.18,148.29-15.56,30.93-26.21,61.86-31.96,92.79-3.83,19.41-5.75,39-5.75,58.77v44.58c4.19,92.19,38.72,171.76,103.6,238.72,20.56,19.41,41.99,37.18,64.28,53.31.42.3.84.61,1.26.91,56.62,33.96,119.46,50.95,188.53,50.95s132.51-16.98,189.97-50.95c.42-.3.84-.61,1.26-.91,22.52-16.13,43.77-33.9,63.74-53.31,4.45-4.58,8.76-9.25,12.93-14.01,56.83-63.92,88.31-138.83,94.44-224.71v-44.58c-.96-19.17-3.53-38.76-7.72-58.77ZM926.41,647.46v-1.82c0-3.03.78-6.06,2.33-9.1,1.2-3.03,2.99-6.19,5.39-9.46,1.2-1.21,3.59-4.25,7.18-9.1,3.23-4,5.63-7.34,7.18-10.01,2.03,2.67,4.55,6,7.54,10.01,3.95,4.85,6.34,8.01,7.18,9.46,2.39,3.4,4.19,6.43,5.39,9.1,1.56,3.03,2.45,6.07,2.69,9.1v2.73c-.6,5.82-2.81,10.86-6.64,15.1-1.2,1.21-2.57,2.24-4.13,3.09-3.59,2.18-7.6,3.28-12.03,3.28-4.19,0-8.08-1.09-11.67-3.28-1.2-.85-2.57-1.88-4.13-3.09-3.83-4.25-5.93-9.28-6.28-15.1v-.91ZM813.83,779.92v4.55c-1.2,20.01-8.98,37.42-23.34,52.22-4.55,4.61-9.34,8.55-14.36,11.83-12.57,7.88-26.51,11.83-41.84,11.83s-28.97-3.94-41.3-11.83c-5.03-3.28-9.94-7.22-14.72-11.83-14.12-14.8-21.79-32.21-22.98-52.22v-10.01c0-11.28,2.69-22.38,8.08-33.3,4.55-9.95,11.01-20.86,19.39-32.75,3.59-4.25,12.27-14.98,26.03-32.21,11.01-13.95,19.51-25.96,25.5-36.03,6.58,10.07,15.26,22.2,26.03,36.39,13.53,17.35,22.2,28.26,26.03,32.75,8.38,12.49,14.84,23.29,19.39,32.39,5.03,11.52,7.72,22.44,8.08,32.75v5.46ZM847.05,733.89c-2.99-1.82-5.69-3.76-8.08-5.82-7.78-8.49-11.97-18.2-12.57-29.11v-6c0-6.06,1.5-11.95,4.49-17.65,2.39-5.46,5.81-11.52,10.23-18.2,2.15-2.18,7.12-8.13,14.9-17.83,5.99-7.28,10.59-13.77,13.83-19.47,3.35,5.7,8.14,12.37,14.36,20.01,7.54,9.7,12.21,15.77,14,18.2,4.79,6.67,8.38,12.43,10.77,17.29,2.63,6.31,4.13,12.19,4.49,17.65v6c-.6,10.92-4.97,20.62-13.11,29.11-2.39,2.06-4.91,4-7.54,5.82-7.18,4.25-14.84,6.37-22.98,6.37s-15.98-2.12-22.8-6.37ZM1110.45,860.34v6.37c-2.03,29.11-13.41,54.16-34.11,75.15-6.22,6.07-12.93,11.83-20.11,17.29-18.31,10.55-38.36,15.83-60.15,15.83s-41.84-5.28-59.79-15.83c-7.18-5.46-13.89-11.22-20.11-17.29-20.71-20.98-31.66-46.03-32.86-75.15v-14.01c0-16.13,3.89-32.08,11.67-47.85,5.99-14.19,15.14-29.78,27.47-46.76,4.79-6.07,17.18-21.53,37.17-46.4,15.92-20.01,28.07-37,36.45-50.95,9.22,13.95,21.61,31.23,37.17,51.86,19.75,24.87,32.2,40.45,37.35,46.76,12.21,17.95,21.31,33.3,27.29,46.03,7.54,16.62,11.73,32.39,12.57,47.31v7.64Z" style="fill:#405b37; stroke-width:0px;"/><path d="M1061.07,478.25c-2.39-49.13-20.95-91.58-55.66-127.37-10.41-10.55-21.79-20.08-34.11-28.57-30.16-18.2-63.5-27.29-100.01-27.29s-70.56,9.1-101.09,27.29c-11.97,8.49-23.34,18.01-34.11,28.57-34.71,35.78-53.87,78.24-57.46,127.37v23.29c1.2,25.11,8.26,51.49,21.19,79.15,10.17,21.83,25.74,47.61,46.68,77.33,8.38,11.16,28.85,37.54,61.41,79.15,26.69,34.57,47.82,63.8,63.38,87.7,14.36-23.9,34.71-52.71,61.05-86.43,33.52-41.48,54.58-67.38,63.2-77.69,20.35-28.87,35.49-55.13,45.43-78.78,13.41-26.93,20.11-53.74,20.11-80.42v-13.28c0-3.64,0-6.97,0-10.01ZM913.48,696.23v2.73c-.6,10.92-4.97,20.62-13.11,29.11-2.39,2.06-4.91,4-7.54,5.82-7.18,4.25-14.84,6.37-22.98,6.37s-15.98-2.12-22.8-6.37c-2.99-1.82-5.69-3.76-8.08-5.82-7.78-8.49-11.97-18.2-12.57-29.11v-6c0-6.06,1.5-11.95,4.49-17.65,2.39-5.46,5.81-11.52,10.23-18.2,2.15-2.18,7.12-8.13,14.9-17.83,5.99-7.28,10.59-13.77,13.83-19.47,3.35,5.7,8.14,12.37,14.36,20.01,7.54,9.7,12.21,15.77,14,18.2,4.79,6.67,8.38,12.43,10.77,17.29,2.63,6.31,4.13,12.19,4.49,17.65v3.28ZM971.3,647.46v.91c-.6,5.82-2.81,10.86-6.64,15.1-1.2,1.21-2.57,2.24-4.13,3.09-3.59,2.18-7.6,3.28-12.03,3.28-4.19,0-8.08-1.09-11.67-3.28-1.2-.85-2.57-1.88-4.13-3.09-3.83-4.25-5.93-9.28-6.28-15.1v-2.73c0-3.03.78-6.06,2.33-9.1,1.2-3.03,2.99-6.19,5.39-9.46,1.2-1.21,3.59-4.25,7.18-9.1,3.23-4,5.63-7.34,7.18-10.01,2.03,2.67,4.55,6,7.54,10.01,3.95,4.85,6.34,8.01,7.18,9.46,2.39,3.4,4.19,6.43,5.39,9.1,1.56,3.03,2.45,6.07,2.69,9.1v1.82Z" style="fill:url(#c); stroke-width:0px;"/></g><g style="opacity:.15;"><path d="M1069.04,41.37c2.86,12.57,7.4,25.61,13.64,39.12,5.89,12.18,13.89,25.95,24,41.31,4.34,6.59,9.07,13.48,14.18,20.65.84,1.11,1.83,2.41,2.96,3.9,8.18,10.63,24.08,30.76,47.7,60.4,21.56,27.8,38.71,51.31,51.44,70.53,11.79-19.22,28.47-42.53,50.03-69.91,25.73-31.33,42.41-51.67,50.03-61.02.51-.62.98-1.19,1.4-1.71,16.63-23.02,29.1-44.19,37.41-63.52,6.75-13.25,11.38-26.5,13.87-39.75,1.66-8.31,2.49-16.7,2.49-25.17V-2.89c-1.82-39.49-16.81-73.57-44.97-102.25-8.92-8.31-18.22-15.92-27.9-22.83-.18-.13-.36-.26-.55-.39-24.58-14.55-51.85-21.82-81.83-21.82s-57.52,7.27-82.45,21.82c-.18.13-.37.26-.55.39-9.78,6.91-19,14.52-27.67,22.83-1.93,1.96-3.8,3.96-5.61,6-24.67,27.38-38.33,59.46-40.99,96.25v19.09c.42,8.21,1.53,16.6,3.35,25.17ZM1231.53,5.52v.78c0,1.3-.34,2.6-1.01,3.9-.52,1.3-1.3,2.65-2.34,4.05-.52.52-1.56,1.82-3.12,3.9-1.4,1.71-2.44,3.14-3.12,4.29-.88-1.14-1.97-2.57-3.27-4.29-1.71-2.08-2.75-3.43-3.12-4.05-1.04-1.45-1.82-2.75-2.34-3.9-.68-1.3-1.07-2.6-1.17-3.9v-1.17c.26-2.49,1.22-4.65,2.88-6.47.52-.52,1.12-.96,1.79-1.32,1.56-.94,3.3-1.4,5.22-1.4,1.82,0,3.51.47,5.07,1.4.52.36,1.12.81,1.79,1.32,1.66,1.82,2.57,3.97,2.73,6.47v.39ZM1280.4-51.21v-1.95c.52-8.57,3.9-16.03,10.13-22.37,1.97-1.97,4.05-3.66,6.23-5.07,5.46-3.38,11.51-5.07,18.16-5.07s12.57,1.69,17.92,5.07c2.18,1.4,4.31,3.09,6.39,5.07,6.13,6.34,9.46,13.79,9.98,22.37v4.29c0,4.83-1.17,9.59-3.51,14.26-1.97,4.26-4.78,8.94-8.42,14.03-1.56,1.82-5.33,6.42-11.3,13.79-4.78,5.97-8.47,11.12-11.07,15.43-2.86-4.31-6.62-9.51-11.3-15.59-5.87-7.43-9.64-12.11-11.3-14.03-3.64-5.35-6.44-9.98-8.42-13.87-2.18-4.94-3.35-9.61-3.51-14.03v-2.34ZM1265.98-31.5c1.3.78,2.47,1.61,3.51,2.49,3.38,3.64,5.2,7.79,5.46,12.47v2.57c0,2.6-.65,5.12-1.95,7.56-1.04,2.34-2.52,4.94-4.44,7.79-.94.94-3.09,3.48-6.47,7.64-2.6,3.12-4.6,5.9-6,8.34-1.45-2.44-3.53-5.3-6.23-8.57-3.27-4.16-5.3-6.75-6.08-7.79-2.08-2.86-3.64-5.33-4.68-7.4-1.14-2.7-1.79-5.22-1.95-7.56v-2.57c.26-4.68,2.16-8.83,5.69-12.47,1.04-.88,2.13-1.71,3.27-2.49,3.12-1.82,6.44-2.73,9.98-2.73s6.94.91,9.9,2.73ZM1151.65-85.66v-2.73c.88-12.47,5.82-23.2,14.81-32.19,2.7-2.6,5.61-5.07,8.73-7.4,7.95-4.52,16.65-6.78,26.11-6.78s18.16,2.26,25.95,6.78c3.12,2.34,6.03,4.81,8.73,7.4,8.99,8.99,13.74,19.72,14.26,32.19v6c0,6.91-1.69,13.74-5.07,20.5-2.6,6.08-6.57,12.76-11.92,20.03-2.08,2.6-7.46,9.22-16.13,19.87-6.91,8.57-12.18,15.85-15.82,21.82-4-5.97-9.38-13.38-16.13-22.21-8.57-10.65-13.98-17.33-16.21-20.03-5.3-7.69-9.25-14.26-11.85-19.72-3.27-7.12-5.09-13.87-5.46-20.26v-3.27Z" style="fill:#405b37; stroke-width:0px;"/><path d="M1173.08,78c1.04,21.04,9.09,39.23,24.16,54.55,4.52,4.52,9.46,8.6,14.81,12.24,13.09,7.79,27.56,11.69,43.41,11.69s30.63-3.9,43.88-11.69c5.2-3.64,10.13-7.72,14.81-12.24,15.07-15.33,23.38-33.51,24.94-54.55v-9.98c-.52-10.75-3.59-22.06-9.2-33.9-4.42-9.35-11.17-20.39-20.26-33.12-3.64-4.78-12.52-16.08-26.65-33.9-11.59-14.81-20.76-27.33-27.51-37.56-6.23,10.24-15.07,22.57-26.5,37.02-14.55,17.77-23.69,28.86-27.43,33.28-8.83,12.37-15.4,23.61-19.72,33.75-5.82,11.53-8.73,23.02-8.73,34.45v5.69c0,1.56,0,2.99,0,4.29ZM1237.14-15.36v-1.17c.26-4.68,2.16-8.83,5.69-12.47,1.04-.88,2.13-1.71,3.27-2.49,3.12-1.82,6.44-2.73,9.98-2.73s6.94.91,9.9,2.73c1.3.78,2.47,1.61,3.51,2.49,3.38,3.64,5.2,7.79,5.46,12.47v2.57c0,2.6-.65,5.12-1.95,7.56-1.04,2.34-2.52,4.94-4.44,7.79-.94.94-3.09,3.48-6.47,7.64-2.6,3.12-4.6,5.9-6,8.34-1.45-2.44-3.53-5.3-6.23-8.57-3.27-4.16-5.3-6.75-6.08-7.79-2.08-2.86-3.64-5.33-4.68-7.4-1.14-2.7-1.79-5.22-1.95-7.56v-1.4ZM1212.05,5.52v-.39c.26-2.49,1.22-4.65,2.88-6.47.52-.52,1.12-.96,1.79-1.32,1.56-.94,3.3-1.4,5.22-1.4,1.82,0,3.51.47,5.07,1.4.52.36,1.12.81,1.79,1.32,1.66,1.82,2.57,3.97,2.73,6.47v1.17c0,1.3-.34,2.6-1.01,3.9-.52,1.3-1.3,2.65-2.34,4.05-.52.52-1.56,1.82-3.12,3.9-1.4,1.71-2.44,3.14-3.12,4.29-.88-1.14-1.97-2.57-3.27-4.29-1.71-2.08-2.75-3.43-3.12-4.05-1.04-1.45-1.82-2.75-2.34-3.9-.68-1.3-1.07-2.6-1.17-3.9v-.78Z" style="fill:url(#d); stroke-width:0px;"/></g><g style="opacity:.08;"><path d="M593.64-56.4c2.86,12.57,7.4,25.61,13.64,39.12,5.89,12.18,13.89,25.95,24,41.31,4.34,6.59,9.07,13.48,14.18,20.65.84,1.11,1.83,2.41,2.96,3.9,8.18,10.63,24.08,30.76,47.7,60.4,21.56,27.8,38.71,51.31,51.44,70.53,11.79-19.22,28.47-42.53,50.03-69.91,25.73-31.33,42.41-51.67,50.03-61.02.51-.62.98-1.19,1.4-1.71,16.63-23.02,29.1-44.19,37.41-63.52,6.75-13.25,11.38-26.5,13.87-39.75,1.66-8.31,2.49-16.7,2.49-25.17v-19.09c-1.82-39.49-16.81-73.57-44.97-102.25-8.92-8.31-18.22-15.92-27.9-22.83-.18-.13-.36-.26-.55-.39-24.58-14.55-51.85-21.82-81.83-21.82s-57.52,7.27-82.45,21.82c-.18.13-.37.26-.55.39-9.78,6.91-19,14.52-27.67,22.83-1.93,1.96-3.8,3.96-5.61,6-24.67,27.38-38.33,59.46-40.99,96.25v19.09c.42,8.21,1.53,16.6,3.35,25.17ZM756.13-92.24v.78c0,1.3-.34,2.6-1.01,3.9-.52,1.3-1.3,2.65-2.34,4.05-.52.52-1.56,1.82-3.12,3.9-1.4,1.71-2.44,3.14-3.12,4.29-.88-1.14-1.97-2.57-3.27-4.29-1.71-2.08-2.75-3.43-3.12-4.05-1.04-1.45-1.82-2.75-2.34-3.9-.68-1.3-1.07-2.6-1.17-3.9v-1.17c.26-2.49,1.22-4.65,2.88-6.47.52-.52,1.12-.96,1.79-1.32,1.56-.94,3.3-1.4,5.22-1.4,1.82,0,3.51.47,5.07,1.4.52.36,1.12.81,1.79,1.32,1.66,1.82,2.57,3.97,2.73,6.47v.39ZM805-148.98v-1.95c.52-8.57,3.9-16.03,10.13-22.37,1.97-1.97,4.05-3.66,6.23-5.07,5.46-3.38,11.51-5.07,18.16-5.07s12.57,1.69,17.92,5.07c2.18,1.4,4.31,3.09,6.39,5.07,6.13,6.34,9.46,13.79,9.98,22.37v4.29c0,4.83-1.17,9.59-3.51,14.26-1.97,4.26-4.78,8.94-8.42,14.03-1.56,1.82-5.33,6.42-11.3,13.79-4.78,5.97-8.47,11.12-11.07,15.43-2.86-4.31-6.62-9.51-11.3-15.59-5.87-7.43-9.64-12.11-11.3-14.03-3.64-5.35-6.44-9.98-8.42-13.87-2.18-4.94-3.35-9.61-3.51-14.03v-2.34ZM790.58-129.26c1.3.78,2.47,1.61,3.51,2.49,3.38,3.64,5.2,7.79,5.46,12.47v2.57c0,2.6-.65,5.12-1.95,7.56-1.04,2.34-2.52,4.94-4.44,7.79-.94.94-3.09,3.48-6.47,7.64-2.6,3.12-4.6,5.9-6,8.34-1.45-2.44-3.53-5.3-6.23-8.57-3.27-4.16-5.3-6.75-6.08-7.79-2.08-2.86-3.64-5.33-4.68-7.4-1.14-2.7-1.79-5.22-1.95-7.56v-2.57c.26-4.68,2.16-8.83,5.69-12.47,1.04-.88,2.13-1.71,3.27-2.49,3.12-1.82,6.44-2.73,9.98-2.73s6.94.91,9.9,2.73ZM676.25-183.43v-2.73c.88-12.47,5.82-23.2,14.81-32.19,2.7-2.6,5.61-5.07,8.73-7.4,7.95-4.52,16.65-6.78,26.11-6.78s18.16,2.26,25.95,6.78c3.12,2.34,6.03,4.81,8.73,7.4,8.99,8.99,13.74,19.72,14.26,32.19v6c0,6.91-1.69,13.74-5.07,20.5-2.6,6.08-6.57,12.76-11.92,20.03-2.08,2.6-7.46,9.22-16.13,19.87-6.91,8.57-12.18,15.85-15.82,21.82-4-5.97-9.38-13.38-16.13-22.21-8.57-10.65-13.98-17.33-16.21-20.03-5.3-7.69-9.25-14.26-11.85-19.72-3.27-7.12-5.09-13.87-5.46-20.26v-3.27Z" style="fill:#405b37; stroke-width:0px;"/><path d="M697.68-19.77c1.04,21.04,9.09,39.23,24.16,54.55,4.52,4.52,9.46,8.6,14.81,12.24,13.09,7.79,27.56,11.69,43.41,11.69s30.63-3.9,43.88-11.69c5.2-3.64,10.13-7.72,14.81-12.24,15.07-15.33,23.38-33.51,24.94-54.55v-9.98c-.52-10.75-3.59-22.06-9.2-33.9-4.42-9.35-11.17-20.39-20.26-33.12-3.64-4.78-12.52-16.08-26.65-33.9-11.59-14.81-20.76-27.33-27.51-37.56-6.23,10.24-15.07,22.57-26.5,37.02-14.55,17.77-23.69,28.86-27.43,33.28-8.83,12.37-15.4,23.61-19.72,33.75-5.82,11.53-8.73,23.02-8.73,34.45v5.69c0,1.56,0,2.99,0,4.29ZM761.74-113.13v-1.17c.26-4.68,2.16-8.83,5.69-12.47,1.04-.88,2.13-1.71,3.27-2.49,3.12-1.82,6.44-2.73,9.98-2.73s6.94.91,9.9,2.73c1.3.78,2.47,1.61,3.51,2.49,3.38,3.64,5.2,7.79,5.46,12.47v2.57c0,2.6-.65,5.12-1.95,7.56-1.04,2.34-2.52,4.94-4.44,7.79-.94.94-3.09,3.48-6.47,7.64-2.6,3.12-4.6,5.9-6,8.34-1.45-2.44-3.53-5.3-6.23-8.57-3.27-4.16-5.3-6.75-6.08-7.79-2.08-2.86-3.64-5.33-4.68-7.4-1.14-2.7-1.79-5.22-1.95-7.56v-1.4ZM736.65-92.24v-.39c.26-2.49,1.22-4.65,2.88-6.47.52-.52,1.12-.96,1.79-1.32,1.56-.94,3.3-1.4,5.22-1.4,1.82,0,3.51.47,5.07,1.4.52.36,1.12.81,1.79,1.32,1.66,1.82,2.57,3.97,2.73,6.47v1.17c0,1.3-.34,2.6-1.01,3.9-.52,1.3-1.3,2.65-2.34,4.05-.52.52-1.56,1.82-3.12,3.9-1.4,1.71-2.44,3.14-3.12,4.29-.88-1.14-1.97-2.57-3.27-4.29-1.71-2.08-2.75-3.43-3.12-4.05-1.04-1.45-1.82-2.75-2.34-3.9-.68-1.3-1.07-2.6-1.17-3.9v-.78Z" style="fill:url(#e); stroke-width:0px;"/></g><g style="opacity:.1;"><path d="M1542.77,311.05c-2.44-10.76-6.33-21.91-11.67-33.47-5.04-10.42-11.88-22.2-20.53-35.34-3.71-5.64-7.76-11.53-12.13-17.67-.72-.95-1.56-2.06-2.53-3.33-7-9.09-20.6-26.32-40.8-51.67-18.45-23.78-33.11-43.89-44-60.34-10.09,16.45-24.36,36.38-42.8,59.8-22.01,26.8-36.28,44.2-42.8,52.2-.44.53-.84,1.02-1.2,1.47-14.22,19.69-24.89,37.8-32,54.34-5.78,11.33-9.73,22.67-11.87,34-1.42,7.11-2.13,14.29-2.13,21.53v16.33c1.56,33.78,14.38,62.94,38.47,87.47,7.63,7.11,15.59,13.62,23.87,19.53.16.11.31.22.47.33,21.02,12.45,44.36,18.67,70,18.67s49.2-6.22,70.54-18.67c.16-.11.31-.22.47-.33,8.36-5.91,16.25-12.42,23.67-19.53,1.65-1.68,3.25-3.39,4.8-5.13,21.1-23.42,32.79-50.87,35.07-82.34v-16.33c-.36-7.02-1.31-14.2-2.87-21.53ZM1403.76,341.72v-.67c0-1.11.29-2.22.87-3.33.44-1.11,1.11-2.27,2-3.47.44-.44,1.33-1.56,2.67-3.33,1.2-1.47,2.09-2.69,2.67-3.67.76.98,1.69,2.2,2.8,3.67,1.47,1.78,2.36,2.93,2.67,3.47.89,1.24,1.56,2.36,2,3.33.58,1.11.91,2.22,1,3.33v1c-.22,2.13-1.04,3.98-2.47,5.53-.44.44-.96.82-1.53,1.13-1.33.8-2.82,1.2-4.47,1.2-1.56,0-3-.4-4.33-1.2-.44-.31-.96-.69-1.53-1.13-1.42-1.56-2.2-3.4-2.33-5.53v-.33ZM1361.96,390.25v1.67c-.44,7.33-3.33,13.71-8.67,19.13-1.69,1.69-3.47,3.13-5.33,4.33-4.67,2.89-9.85,4.33-15.53,4.33s-10.76-1.44-15.33-4.33c-1.87-1.2-3.69-2.64-5.47-4.33-5.24-5.42-8.09-11.8-8.53-19.13v-3.67c0-4.13,1-8.2,3-12.2,1.69-3.64,4.09-7.65,7.2-12,1.33-1.56,4.56-5.49,9.67-11.8,4.09-5.11,7.24-9.51,9.47-13.2,2.44,3.69,5.67,8.13,9.67,13.33,5.02,6.36,8.25,10.36,9.67,12,3.11,4.58,5.51,8.53,7.2,11.87,1.87,4.22,2.87,8.22,3,12v2ZM1374.29,373.38c-1.11-.67-2.11-1.38-3-2.13-2.89-3.11-4.44-6.67-4.67-10.67v-2.2c0-2.22.56-4.38,1.67-6.47.89-2,2.16-4.22,3.8-6.67.8-.8,2.64-2.98,5.53-6.53,2.22-2.67,3.93-5.04,5.13-7.13,1.24,2.09,3.02,4.53,5.33,7.33,2.8,3.56,4.53,5.78,5.2,6.67,1.78,2.44,3.11,4.56,4,6.33.98,2.31,1.53,4.47,1.67,6.47v2.2c-.22,4-1.84,7.56-4.87,10.67-.89.76-1.82,1.47-2.8,2.13-2.67,1.56-5.51,2.33-8.53,2.33s-5.93-.78-8.47-2.33ZM1472.1,419.72v2.33c-.76,10.67-4.98,19.85-12.67,27.54-2.31,2.22-4.8,4.33-7.47,6.33-6.8,3.87-14.25,5.8-22.33,5.8s-15.53-1.93-22.2-5.8c-2.67-2-5.16-4.11-7.47-6.33-7.69-7.69-11.76-16.87-12.2-27.54v-5.13c0-5.91,1.44-11.76,4.33-17.53,2.22-5.2,5.62-10.91,10.2-17.13,1.78-2.22,6.38-7.89,13.8-17,5.91-7.33,10.42-13.56,13.53-18.67,3.42,5.11,8.02,11.45,13.8,19,7.33,9.11,11.96,14.82,13.87,17.13,4.53,6.58,7.91,12.2,10.13,16.87,2.8,6.09,4.36,11.87,4.67,17.33v2.8Z" style="fill:#405b37; stroke-width:0px;"/><path d="M1453.77,279.71c-.89-18-7.78-33.56-20.67-46.67-3.87-3.87-8.09-7.36-12.67-10.47-11.2-6.67-23.58-10-37.14-10s-26.2,3.33-37.54,10c-4.44,3.11-8.67,6.6-12.67,10.47-12.89,13.11-20,28.67-21.33,46.67v8.53c.44,9.2,3.07,18.87,7.87,29,3.78,8,9.56,17.45,17.33,28.34,3.11,4.09,10.71,13.76,22.8,29,9.91,12.67,17.76,23.38,23.53,32.14,5.33-8.76,12.89-19.31,22.67-31.67,12.45-15.2,20.27-24.69,23.47-28.47,7.56-10.58,13.18-20.2,16.87-28.87,4.98-9.87,7.47-19.69,7.47-29.47v-4.87c0-1.33,0-2.56,0-3.67ZM1398.96,359.58v1c-.22,4-1.84,7.56-4.87,10.67-.89.76-1.82,1.47-2.8,2.13-2.67,1.56-5.51,2.33-8.53,2.33s-5.93-.78-8.47-2.33c-1.11-.67-2.11-1.38-3-2.13-2.89-3.11-4.44-6.67-4.67-10.67v-2.2c0-2.22.56-4.38,1.67-6.47.89-2,2.16-4.22,3.8-6.67.8-.8,2.64-2.98,5.53-6.53,2.22-2.67,3.93-5.04,5.13-7.13,1.24,2.09,3.02,4.53,5.33,7.33,2.8,3.56,4.53,5.78,5.2,6.67,1.78,2.44,3.11,4.56,4,6.33.98,2.31,1.53,4.47,1.67,6.47v1.2ZM1420.43,341.72v.33c-.22,2.13-1.04,3.98-2.47,5.53-.44.44-.96.82-1.53,1.13-1.33.8-2.82,1.2-4.47,1.2-1.56,0-3-.4-4.33-1.2-.44-.31-.96-.69-1.53-1.13-1.42-1.56-2.2-3.4-2.33-5.53v-1c0-1.11.29-2.22.87-3.33.44-1.11,1.11-2.27,2-3.47.44-.44,1.33-1.56,2.67-3.33,1.2-1.47,2.09-2.69,2.67-3.67.76.98,1.69,2.2,2.8,3.67,1.47,1.78,2.36,2.93,2.67,3.47.89,1.24,1.56,2.36,2,3.33.58,1.11.91,2.22,1,3.33v.67Z" style="fill:url(#f); stroke-width:0px;"/></g><g style="opacity:.1;"><path d="M1605.78,1042.22c-3.73-16.39-9.65-33.39-17.78-51-7.68-15.88-18.11-33.83-31.29-53.85-5.66-8.59-11.82-17.57-18.49-26.92-1.1-1.45-2.38-3.14-3.86-5.08-10.66-13.86-31.39-40.1-62.18-78.74-28.11-36.24-50.46-66.88-67.05-91.94-15.37,25.06-37.12,55.44-65.22,91.13-33.54,40.84-55.28,67.36-65.22,79.55-.66.81-1.27,1.55-1.83,2.24-21.67,30-37.93,57.61-48.77,82.8-8.8,17.27-14.83,34.54-18.08,51.81-2.17,10.84-3.25,21.78-3.25,32.82v24.89c2.37,51.48,21.91,95.91,58.62,133.29,11.63,10.84,23.76,20.76,36.37,29.77.24.17.47.34.71.51,32.04,18.96,67.6,28.45,106.68,28.45s74.98-9.48,107.49-28.45c.24-.17.48-.34.71-.51,12.74-9.01,24.77-18.93,36.07-29.77,2.52-2.56,4.95-5.17,7.31-7.82,32.16-35.69,49.97-77.52,53.44-125.47v-24.89c-.54-10.7-2-21.64-4.37-32.82ZM1393.95,1088.96v-1.02c0-1.69.44-3.39,1.32-5.08.68-1.69,1.69-3.45,3.05-5.28.68-.68,2.03-2.37,4.06-5.08,1.83-2.24,3.18-4.1,4.06-5.59,1.15,1.49,2.57,3.35,4.27,5.59,2.24,2.71,3.59,4.47,4.06,5.28,1.35,1.9,2.37,3.59,3.05,5.08.88,1.69,1.39,3.39,1.52,5.08v1.52c-.34,3.25-1.59,6.06-3.76,8.43-.68.68-1.46,1.25-2.34,1.73-2.03,1.22-4.3,1.83-6.81,1.83-2.37,0-4.57-.61-6.6-1.83-.68-.47-1.46-1.05-2.34-1.73-2.17-2.37-3.35-5.18-3.56-8.43v-.51ZM1330.25,1162.92v2.54c-.68,11.18-5.08,20.89-13.21,29.16-2.57,2.57-5.28,4.78-8.13,6.6-7.11,4.4-15,6.6-23.67,6.6s-16.39-2.2-23.37-6.6c-2.84-1.83-5.62-4.03-8.33-6.6-7.99-8.26-12.33-17.98-13-29.16v-5.59c0-6.3,1.52-12.5,4.57-18.59,2.57-5.55,6.23-11.65,10.97-18.29,2.03-2.37,6.94-8.36,14.73-17.98,6.23-7.79,11.04-14.49,14.43-20.12,3.73,5.62,8.64,12.39,14.73,20.32,7.65,9.69,12.56,15.78,14.73,18.29,4.74,6.98,8.4,13,10.97,18.08,2.84,6.43,4.37,12.53,4.57,18.29v3.05ZM1349.04,1137.21c-1.69-1.02-3.22-2.1-4.57-3.25-4.4-4.74-6.77-10.16-7.11-16.26v-3.35c0-3.39.85-6.67,2.54-9.85,1.35-3.05,3.28-6.43,5.79-10.16,1.22-1.22,4.03-4.54,8.43-9.96,3.39-4.06,5.99-7.69,7.82-10.87,1.9,3.18,4.61,6.91,8.13,11.18,4.27,5.42,6.91,8.8,7.92,10.16,2.71,3.73,4.74,6.94,6.1,9.65,1.49,3.52,2.34,6.81,2.54,9.85v3.35c-.34,6.1-2.81,11.51-7.42,16.26-1.35,1.15-2.78,2.24-4.27,3.25-4.06,2.37-8.4,3.56-13,3.56s-9.04-1.19-12.9-3.56ZM1498.09,1207.82v3.56c-1.15,16.26-7.59,30.24-19.3,41.96-3.52,3.39-7.31,6.6-11.38,9.65-10.36,5.89-21.71,8.84-34.03,8.84s-23.67-2.95-33.83-8.84c-4.06-3.05-7.86-6.27-11.38-9.65-11.72-11.72-17.91-25.7-18.59-41.96v-7.82c0-9.01,2.2-17.91,6.6-26.72,3.39-7.92,8.57-16.63,15.54-26.11,2.71-3.39,9.72-12.02,21.03-25.91,9.01-11.18,15.88-20.66,20.62-28.45,5.22,7.79,12.23,17.44,21.03,28.95,11.18,13.88,18.22,22.59,21.13,26.11,6.91,10.02,12.06,18.59,15.44,25.7,4.27,9.28,6.64,18.08,7.11,26.42v4.27Z" style="fill:#405b37; stroke-width:0px;"/><path d="M1470.15,994.47c-1.35-27.43-11.85-51.14-31.49-71.12-5.89-5.89-12.33-11.21-19.3-15.95-17.07-10.16-35.93-15.24-56.59-15.24s-39.93,5.08-57.2,15.24c-6.77,4.74-13.21,10.06-19.3,15.95-19.64,19.98-30.48,43.69-32.51,71.12v13c.68,14.02,4.67,28.75,11.99,44.19,5.76,12.19,14.56,26.58,26.41,43.18,4.74,6.23,16.32,20.96,34.75,44.19,15.1,19.3,27.06,35.63,35.86,48.97,8.13-13.34,19.64-29.43,34.54-48.26,18.96-23.16,30.89-37.62,35.76-43.38,11.51-16.12,20.08-30.78,25.7-43.99,7.59-15.04,11.38-30,11.38-44.91v-7.42c0-2.03,0-3.89,0-5.59ZM1386.64,1116.18v1.52c-.34,6.1-2.81,11.51-7.42,16.26-1.35,1.15-2.78,2.24-4.27,3.25-4.06,2.37-8.4,3.56-13,3.56s-9.04-1.19-12.9-3.56c-1.69-1.02-3.22-2.1-4.57-3.25-4.4-4.74-6.77-10.16-7.11-16.26v-3.35c0-3.39.85-6.67,2.54-9.85,1.35-3.05,3.28-6.43,5.79-10.16,1.22-1.22,4.03-4.54,8.43-9.96,3.39-4.06,5.99-7.69,7.82-10.87,1.9,3.18,4.61,6.91,8.13,11.18,4.27,5.42,6.91,8.8,7.92,10.16,2.71,3.73,4.74,6.94,6.1,9.65,1.49,3.52,2.34,6.81,2.54,9.85v1.83ZM1419.35,1088.96v.51c-.34,3.25-1.59,6.06-3.76,8.43-.68.68-1.46,1.25-2.34,1.73-2.03,1.22-4.3,1.83-6.81,1.83-2.37,0-4.57-.61-6.6-1.83-.68-.47-1.46-1.05-2.34-1.73-2.17-2.37-3.35-5.18-3.56-8.43v-1.52c0-1.69.44-3.39,1.32-5.08.68-1.69,1.69-3.45,3.05-5.28.68-.68,2.03-2.37,4.06-5.08,1.83-2.24,3.18-4.1,4.06-5.59,1.15,1.49,2.57,3.35,4.27,5.59,2.24,2.71,3.59,4.47,4.06,5.28,1.35,1.9,2.37,3.59,3.05,5.08.88,1.69,1.39,3.39,1.52,5.08v1.02Z" style="fill:url(#g); stroke-width:0px;"/></g><g style="opacity:.07;"><path d="M30.78,643.36c4.71,20.73,12.21,42.24,22.49,64.51,9.71,20.08,22.91,42.79,39.58,68.11,7.16,10.87,14.95,22.22,23.39,34.06,1.39,1.84,3.01,3.98,4.88,6.43,13.49,17.53,39.71,50.73,78.65,99.6,35.56,45.84,63.83,84.61,84.82,116.31,19.45-31.7,46.95-70.13,82.51-115.28,42.42-51.67,69.93-85.21,82.51-100.63.84-1.02,1.61-1.96,2.31-2.83,27.42-37.95,47.98-72.87,61.69-104.74,11.14-21.85,18.76-43.69,22.88-65.54,2.74-13.71,4.11-27.54,4.11-41.51v-31.49c-3-65.11-27.72-121.32-74.15-168.61-14.72-13.71-30.05-26.26-46.01-37.65-.3-.21-.6-.43-.9-.64-40.52-23.99-85.5-35.98-134.94-35.98s-94.84,11.99-135.97,35.98c-.3.21-.6.43-.9.64-16.12,11.4-31.33,23.95-45.62,37.65-3.18,3.24-6.27,6.53-9.25,9.9-40.68,45.15-63.21,98.06-67.6,158.72v31.49c.69,13.54,2.53,27.37,5.53,41.51ZM298.73,584.25v1.29c0,2.14-.56,4.28-1.67,6.43-.86,2.14-2.14,4.37-3.86,6.68-.86.86-2.57,3-5.14,6.43-2.31,2.83-4.03,5.18-5.14,7.07-1.46-1.88-3.26-4.24-5.4-7.07-2.83-3.43-4.54-5.65-5.14-6.68-1.71-2.4-3-4.54-3.86-6.43-1.11-2.14-1.76-4.28-1.93-6.43v-1.93c.43-4.11,2.01-7.67,4.76-10.67.86-.86,1.84-1.58,2.96-2.18,2.57-1.54,5.44-2.31,8.61-2.31,3,0,5.78.77,8.35,2.31.86.6,1.84,1.33,2.96,2.18,2.74,3,4.24,6.55,4.5,10.67v.64ZM379.31,490.69v-3.21c.86-14.14,6.43-26.43,16.71-36.88,3.26-3.26,6.68-6.04,10.28-8.35,9-5.57,18.98-8.35,29.94-8.35s20.73,2.78,29.56,8.35c3.6,2.31,7.11,5.1,10.54,8.35,10.11,10.45,15.59,22.75,16.45,36.88v7.07c0,7.97-1.93,15.81-5.78,23.52-3.26,7.03-7.88,14.74-13.88,23.13-2.57,3-8.78,10.58-18.63,22.75-7.88,9.85-13.97,18.33-18.25,25.45-4.71-7.11-10.92-15.68-18.63-25.7-9.68-12.25-15.89-19.96-18.63-23.13-6-8.82-10.62-16.45-13.88-22.88-3.6-8.14-5.53-15.85-5.78-23.13v-3.86ZM355.54,523.2c2.14,1.29,4.07,2.66,5.78,4.11,5.57,6,8.57,12.85,9,20.56v4.24c0,4.28-1.07,8.44-3.21,12.47-1.71,3.86-4.16,8.14-7.33,12.85-1.54,1.54-5.1,5.74-10.67,12.59-4.28,5.14-7.58,9.72-9.9,13.75-2.4-4.03-5.83-8.74-10.28-14.14-5.4-6.85-8.74-11.14-10.02-12.85-3.43-4.71-6-8.78-7.71-12.21-1.88-4.46-2.96-8.61-3.21-12.47v-4.24c.43-7.71,3.56-14.56,9.38-20.56,1.71-1.46,3.51-2.83,5.4-4.11,5.14-3,10.62-4.5,16.45-4.5s11.44,1.5,16.32,4.5ZM167.01,433.88v-4.5c1.46-20.56,9.6-38.25,24.42-53.08,4.46-4.28,9.25-8.35,14.39-12.21,13.11-7.45,27.46-11.18,43.05-11.18s29.94,3.73,42.8,11.18c5.14,3.86,9.94,7.93,14.39,12.21,14.82,14.82,22.66,32.51,23.52,53.08v9.9c0,11.39-2.78,22.66-8.35,33.8-4.28,10.02-10.84,21.03-19.66,33.03-3.43,4.28-12.29,15.21-26.6,32.77-11.39,14.14-20.09,26.13-26.09,35.98-6.6-9.85-15.46-22.06-26.6-36.63-14.14-17.56-23.05-28.57-26.73-33.03-8.74-12.68-15.25-23.52-19.53-32.51-5.4-11.74-8.4-22.88-9-33.41v-5.4Z" style="fill:#405b37; stroke-width:0px;"/><path d="M202.35,703.76c1.71,34.7,14.99,64.69,39.84,89.96,7.45,7.45,15.59,14.18,24.42,20.18,21.59,12.85,45.45,19.28,71.58,19.28s50.51-6.43,72.35-19.28c8.57-6,16.71-12.72,24.42-20.18,24.85-25.27,38.55-55.26,41.12-89.96v-16.45c-.86-17.73-5.91-36.37-15.16-55.9-7.28-15.42-18.42-33.63-33.41-54.62-6-7.88-20.65-26.52-43.95-55.9-19.11-24.42-34.23-45.07-45.37-61.94-10.28,16.88-24.85,37.23-43.69,61.04-23.99,29.3-39.07,47.59-45.24,54.88-14.56,20.39-25.4,38.94-32.51,55.65-9.6,19.02-14.39,37.95-14.39,56.8v9.38c0,2.57,0,4.93,0,7.07ZM307.99,549.8v-1.93c.43-7.71,3.56-14.56,9.38-20.56,1.71-1.46,3.51-2.83,5.4-4.11,5.14-3,10.62-4.5,16.45-4.5s11.44,1.5,16.32,4.5c2.14,1.29,4.07,2.66,5.78,4.11,5.57,6,8.57,12.85,9,20.56v4.24c0,4.28-1.07,8.44-3.21,12.47-1.71,3.86-4.16,8.14-7.33,12.85-1.54,1.54-5.1,5.74-10.67,12.59-4.28,5.14-7.58,9.72-9.9,13.75-2.4-4.03-5.83-8.74-10.28-14.14-5.4-6.85-8.74-11.14-10.02-12.85-3.43-4.71-6-8.78-7.71-12.21-1.88-4.46-2.96-8.61-3.21-12.47v-2.31ZM266.61,584.25v-.64c.43-4.11,2.01-7.67,4.76-10.67.86-.86,1.84-1.58,2.96-2.18,2.57-1.54,5.44-2.31,8.61-2.31,3,0,5.78.77,8.35,2.31.86.6,1.84,1.33,2.96,2.18,2.74,3,4.24,6.55,4.5,10.67v1.93c0,2.14-.56,4.28-1.67,6.43-.86,2.14-2.14,4.37-3.86,6.68-.86.86-2.57,3-5.14,6.43-2.31,2.83-4.03,5.18-5.14,7.07-1.46-1.88-3.26-4.24-5.4-7.07-2.83-3.43-4.54-5.65-5.14-6.68-1.71-2.4-3-4.54-3.86-6.43-1.11-2.14-1.76-4.28-1.93-6.43v-1.29Z" style="fill:url(#h); stroke-width:0px;"/></g><g style="opacity:.05;"><path d="M1483.92,691.96c4.71,20.73,12.21,42.24,22.49,64.51,9.71,20.08,22.91,42.79,39.58,68.11,7.16,10.87,14.95,22.22,23.39,34.06,1.39,1.84,3.01,3.98,4.88,6.43,13.49,17.53,39.71,50.73,78.65,99.6,35.56,45.84,63.83,84.61,84.82,116.31,19.45-31.7,46.95-70.13,82.51-115.28,42.42-51.67,69.93-85.21,82.51-100.63.84-1.02,1.61-1.96,2.31-2.83,27.42-37.95,47.98-72.87,61.69-104.74,11.14-21.85,18.76-43.69,22.88-65.54,2.74-13.71,4.11-27.54,4.11-41.51v-31.49c-3-65.11-27.72-121.32-74.15-168.61-14.72-13.71-30.05-26.26-46.01-37.65-.3-.21-.6-.43-.9-.64-40.52-23.99-85.5-35.98-134.94-35.98s-94.84,11.99-135.97,35.98c-.3.21-.6.43-.9.64-16.12,11.4-31.33,23.95-45.62,37.65-3.18,3.24-6.27,6.53-9.25,9.9-40.68,45.15-63.21,98.06-67.6,158.72v31.49c.69,13.54,2.53,27.37,5.53,41.51ZM1751.87,632.84v1.29c0,2.14-.56,4.28-1.67,6.43-.86,2.14-2.14,4.37-3.86,6.68-.86.86-2.57,3-5.14,6.43-2.31,2.83-4.03,5.18-5.14,7.07-1.46-1.88-3.26-4.24-5.4-7.07-2.83-3.43-4.54-5.65-5.14-6.68-1.71-2.4-3-4.54-3.86-6.43-1.11-2.14-1.76-4.28-1.93-6.43v-1.93c.43-4.11,2.01-7.67,4.76-10.67.86-.86,1.84-1.58,2.96-2.18,2.57-1.54,5.44-2.31,8.61-2.31,3,0,5.78.77,8.35,2.31.86.6,1.84,1.33,2.96,2.18,2.74,3,4.24,6.55,4.5,10.67v.64ZM1832.45,539.28v-3.21c.86-14.14,6.43-26.43,16.71-36.88,3.26-3.26,6.68-6.04,10.28-8.35,9-5.57,18.98-8.35,29.94-8.35s20.73,2.78,29.56,8.35c3.6,2.31,7.11,5.1,10.54,8.35,10.11,10.45,15.59,22.75,16.45,36.88v7.07c0,7.97-1.93,15.81-5.78,23.52-3.26,7.03-7.88,14.74-13.88,23.13-2.57,3-8.78,10.58-18.63,22.75-7.88,9.85-13.97,18.33-18.25,25.45-4.71-7.11-10.92-15.68-18.63-25.7-9.68-12.25-15.89-19.96-18.63-23.13-6-8.82-10.62-16.45-13.88-22.88-3.6-8.14-5.53-15.85-5.78-23.13v-3.86ZM1808.68,571.8c2.14,1.29,4.07,2.66,5.78,4.11,5.57,6,8.57,12.85,9,20.56v4.24c0,4.28-1.07,8.44-3.21,12.47-1.71,3.86-4.16,8.14-7.33,12.85-1.54,1.54-5.1,5.74-10.67,12.59-4.28,5.14-7.58,9.72-9.9,13.75-2.4-4.03-5.83-8.74-10.28-14.14-5.4-6.85-8.74-11.14-10.02-12.85-3.43-4.71-6-8.78-7.71-12.21-1.88-4.46-2.96-8.61-3.21-12.47v-4.24c.43-7.71,3.56-14.56,9.38-20.56,1.71-1.46,3.51-2.83,5.4-4.11,5.14-3,10.62-4.5,16.45-4.5s11.44,1.5,16.32,4.5ZM1620.15,482.48v-4.5c1.46-20.56,9.6-38.25,24.42-53.08,4.46-4.28,9.25-8.35,14.39-12.21,13.11-7.45,27.46-11.18,43.05-11.18s29.94,3.73,42.8,11.18c5.14,3.86,9.94,7.93,14.39,12.21,14.82,14.82,22.66,32.51,23.52,53.08v9.9c0,11.39-2.78,22.66-8.35,33.8-4.28,10.02-10.84,21.03-19.66,33.03-3.43,4.28-12.29,15.21-26.6,32.77-11.39,14.14-20.09,26.13-26.09,35.98-6.6-9.85-15.46-22.06-26.6-36.63-14.14-17.56-23.05-28.57-26.73-33.03-8.74-12.68-15.25-23.52-19.53-32.51-5.4-11.74-8.4-22.88-9-33.41v-5.4Z" style="fill:#405b37; stroke-width:0px;"/><path d="M1655.49,752.36c1.71,34.7,14.99,64.69,39.84,89.96,7.45,7.45,15.59,14.18,24.42,20.18,21.59,12.85,45.45,19.28,71.58,19.28s50.51-6.43,72.35-19.28c8.57-6,16.71-12.72,24.42-20.18,24.85-25.27,38.55-55.26,41.12-89.96v-16.45c-.86-17.73-5.91-36.37-15.16-55.9-7.28-15.42-18.42-33.63-33.41-54.62-6-7.88-20.65-26.52-43.95-55.9-19.11-24.42-34.23-45.07-45.37-61.94-10.28,16.88-24.85,37.23-43.69,61.04-23.99,29.3-39.07,47.59-45.24,54.88-14.56,20.39-25.4,38.94-32.51,55.65-9.6,19.02-14.39,37.95-14.39,56.8v9.38c0,2.57,0,4.93,0,7.07ZM1761.13,598.4v-1.93c.43-7.71,3.56-14.56,9.38-20.56,1.71-1.46,3.51-2.83,5.4-4.11,5.14-3,10.62-4.5,16.45-4.5s11.44,1.5,16.32,4.5c2.14,1.29,4.07,2.66,5.78,4.11,5.57,6,8.57,12.85,9,20.56v4.24c0,4.28-1.07,8.44-3.21,12.47-1.71,3.86-4.16,8.14-7.33,12.85-1.54,1.54-5.1,5.74-10.67,12.59-4.28,5.14-7.58,9.72-9.9,13.75-2.4-4.03-5.83-8.74-10.28-14.14-5.4-6.85-8.74-11.14-10.02-12.85-3.43-4.71-6-8.78-7.71-12.21-1.88-4.46-2.96-8.61-3.21-12.47v-2.31ZM1719.75,632.84v-.64c.43-4.11,2.01-7.67,4.76-10.67.86-.86,1.84-1.58,2.96-2.18,2.57-1.54,5.44-2.31,8.61-2.31,3,0,5.78.77,8.35,2.31.86.6,1.84,1.33,2.96,2.18,2.74,3,4.24,6.55,4.5,10.67v1.93c0,2.14-.56,4.28-1.67,6.43-.86,2.14-2.14,4.37-3.86,6.68-.86.86-2.57,3-5.14,6.43-2.31,2.83-4.03,5.18-5.14,7.07-1.46-1.88-3.26-4.24-5.4-7.07-2.83-3.43-4.54-5.65-5.14-6.68-1.71-2.4-3-4.54-3.86-6.43-1.11-2.14-1.76-4.28-1.93-6.43v-1.29Z" style="fill:url(#i); stroke-width:0px;"/></g><g style="opacity:.1;"><path d="M681.98,199.94c-2.5-11.02-6.49-22.44-11.95-34.28-5.16-10.67-12.17-22.74-21.03-36.19-3.8-5.78-7.94-11.81-12.43-18.1-.74-.98-1.6-2.11-2.59-3.41-7.17-9.32-21.1-26.96-41.79-52.92-18.89-24.36-33.92-44.96-45.07-61.8-10.33,16.84-24.95,37.26-43.84,61.25-22.54,27.45-37.16,45.28-43.84,53.47-.45.54-.86,1.04-1.23,1.5-14.57,20.17-25.49,38.72-32.78,55.65-5.92,11.61-9.97,23.22-12.16,34.83-1.46,7.28-2.19,14.64-2.19,22.06v16.73c1.59,34.6,14.73,64.46,39.4,89.59,7.82,7.28,15.97,13.95,24.45,20.01.16.11.32.23.48.34,21.53,12.75,45.43,19.12,71.7,19.12s50.4-6.37,72.25-19.12c.16-.11.32-.23.48-.34,8.57-6.06,16.65-12.72,24.24-20.01,1.69-1.72,3.33-3.47,4.92-5.26,21.61-23.99,33.59-52.1,35.92-84.34v-16.73c-.36-7.19-1.34-14.55-2.94-22.06ZM539.6,231.35v-.68c0-1.14.3-2.28.89-3.41.46-1.14,1.14-2.32,2.05-3.55.46-.46,1.37-1.59,2.73-3.41,1.23-1.5,2.14-2.75,2.73-3.76.77,1,1.73,2.25,2.87,3.76,1.5,1.82,2.41,3,2.73,3.55.91,1.27,1.59,2.41,2.05,3.41.59,1.14.93,2.28,1.02,3.41v1.02c-.23,2.19-1.07,4.07-2.53,5.67-.46.46-.98.84-1.57,1.16-1.37.82-2.89,1.23-4.58,1.23-1.59,0-3.07-.41-4.44-1.23-.46-.32-.98-.71-1.57-1.16-1.46-1.59-2.25-3.48-2.39-5.67v-.34ZM496.78,281.07v1.71c-.46,7.51-3.41,14.04-8.88,19.6-1.73,1.73-3.55,3.21-5.46,4.44-4.78,2.96-10.08,4.44-15.91,4.44s-11.02-1.48-15.71-4.44c-1.91-1.23-3.78-2.71-5.6-4.44-5.37-5.55-8.29-12.09-8.74-19.6v-3.76c0-4.23,1.02-8.4,3.07-12.5,1.73-3.73,4.19-7.83,7.38-12.29,1.37-1.59,4.67-5.62,9.9-12.09,4.19-5.24,7.42-9.74,9.7-13.52,2.5,3.78,5.8,8.33,9.9,13.66,5.14,6.51,8.44,10.61,9.9,12.29,3.19,4.69,5.65,8.74,7.38,12.16,1.91,4.32,2.94,8.42,3.07,12.29v2.05ZM509.41,263.79c-1.14-.68-2.16-1.41-3.07-2.19-2.96-3.19-4.55-6.83-4.78-10.93v-2.25c0-2.28.57-4.48,1.71-6.62.91-2.05,2.21-4.32,3.89-6.83.82-.82,2.71-3.05,5.67-6.69,2.28-2.73,4.03-5.17,5.26-7.31,1.27,2.14,3.1,4.64,5.46,7.51,2.87,3.64,4.64,5.92,5.33,6.83,1.82,2.5,3.19,4.67,4.1,6.49,1,2.37,1.57,4.58,1.71,6.62v2.25c-.23,4.1-1.89,7.74-4.99,10.93-.91.77-1.87,1.5-2.87,2.19-2.73,1.59-5.65,2.39-8.74,2.39s-6.08-.8-8.67-2.39ZM609.59,311.25v2.39c-.77,10.93-5.1,20.33-12.97,28.2-2.37,2.28-4.92,4.44-7.65,6.49-6.97,3.96-14.59,5.94-22.88,5.94s-15.91-1.98-22.74-5.94c-2.73-2.05-5.28-4.21-7.65-6.49-7.88-7.88-12.04-17.28-12.5-28.2v-5.26c0-6.05,1.48-12.04,4.44-17.96,2.28-5.33,5.76-11.18,10.45-17.55,1.82-2.28,6.53-8.08,14.14-17.41,6.05-7.51,10.68-13.89,13.86-19.12,3.51,5.24,8.22,11.72,14.14,19.46,7.51,9.33,12.25,15.18,14.2,17.55,4.64,6.74,8.1,12.5,10.38,17.28,2.87,6.24,4.46,12.16,4.78,17.75v2.87Z" style="fill:#405b37; stroke-width:0px;"/><path d="M590.81,167.84c-.91-18.44-7.97-34.37-21.17-47.8-3.96-3.96-8.29-7.53-12.97-10.72-11.47-6.83-24.15-10.24-38.04-10.24s-26.84,3.41-38.45,10.24c-4.55,3.19-8.88,6.76-12.97,10.72-13.2,13.43-20.49,29.36-21.85,47.8v8.74c.46,9.42,3.14,19.33,8.06,29.71,3.87,8.19,9.79,17.87,17.75,29.02,3.19,4.19,10.97,14.09,23.35,29.71,10.15,12.97,18.19,23.95,24.11,32.91,5.46-8.97,13.2-19.78,23.22-32.44,12.75-15.57,20.76-25.29,24.04-29.16,7.74-10.84,13.5-20.69,17.28-29.57,5.1-10.11,7.65-20.17,7.65-30.18v-4.99c0-1.37,0-2.62,0-3.76ZM534.68,249.65v1.02c-.23,4.1-1.89,7.74-4.99,10.93-.91.77-1.87,1.5-2.87,2.19-2.73,1.59-5.65,2.39-8.74,2.39s-6.08-.8-8.67-2.39c-1.14-.68-2.16-1.41-3.07-2.19-2.96-3.19-4.55-6.83-4.78-10.93v-2.25c0-2.28.57-4.48,1.71-6.62.91-2.05,2.21-4.32,3.89-6.83.82-.82,2.71-3.05,5.67-6.69,2.28-2.73,4.03-5.17,5.26-7.31,1.27,2.14,3.1,4.64,5.46,7.51,2.87,3.64,4.64,5.92,5.33,6.83,1.82,2.5,3.19,4.67,4.1,6.49,1,2.37,1.57,4.58,1.71,6.62v1.23ZM556.67,231.35v.34c-.23,2.19-1.07,4.07-2.53,5.67-.46.46-.98.84-1.57,1.16-1.37.82-2.89,1.23-4.58,1.23-1.59,0-3.07-.41-4.44-1.23-.46-.32-.98-.71-1.57-1.16-1.46-1.59-2.25-3.48-2.39-5.67v-1.02c0-1.14.3-2.28.89-3.41.46-1.14,1.14-2.32,2.05-3.55.46-.46,1.37-1.59,2.73-3.41,1.23-1.5,2.14-2.75,2.73-3.76.77,1,1.73,2.25,2.87,3.76,1.5,1.82,2.41,3,2.73,3.55.91,1.27,1.59,2.41,2.05,3.41.59,1.14.93,2.28,1.02,3.41v.68Z" style="fill:url(#j); stroke-width:0px;"/></g></svg>